<svg xmlns="http://www.w3.org/2000/svg" xmlns:bx="https://boxy-svg.com" viewBox="0 0 500 500"><defs><linearGradient bx:pinned="true" id="gradient-1"><stop offset="0" stop-color="#fff"/><stop offset=".65" stop-color="#e8e8e8"/><stop offset="1" stop-color="#bebebe"/></linearGradient><linearGradient id="gradient-1-0" x1="360.18" x2="360.18" y1="59.26" y2="170.38" gradientTransform="matrix(.77 .63 -.12 .14 102.41 -136.88)" gradientUnits="userSpaceOnUse" href="#gradient-1"/><filter bx:preset="drop-shadow 1 0 4 3 1 rgba(0,0,0,0.3)" id="drop-shadow-filter-0" width="200%" height="200%" x="-50%" y="-50%" color-interpolation-filters="sRGB"><feGaussianBlur in="SourceAlpha" stdDeviation="3"/><feOffset dy="4"/><feComponentTransfer result="offsetblur"><feFuncA id="spread-ctrl" slope="2" type="linear"/></feComponentTransfer><feFlood flood-color="rgba(0,0,0,0.3)"/><feComposite in2="offsetblur" operator="in"/><feMerge><feMergeNode/><feMergeNode in="SourceGraphic"/></feMerge></filter><filter bx:preset="drop-shadow 1 0 -4 15 1 rgba(0,0,0,0.3)" id="filter-1" width="200%" height="200%" x="-50%" y="-50%" color-interpolation-filters="sRGB"><feGaussianBlur in="SourceAlpha" stdDeviation="15"/><feOffset dy="-4"/><feComponentTransfer result="offsetblur"><feFuncA id="feFuncA-1" slope="2" type="linear"/></feComponentTransfer><feFlood flood-color="rgba(0,0,0,0.3)"/><feComposite in2="offsetblur" operator="in"/><feMerge><feMergeNode/><feMergeNode in="SourceGraphic"/></feMerge></filter><clipPath id="clipPath1" clipPathUnits="userSpaceOnUse"><path id="path1" fill="#585858" stroke-width="1" d="M178.55 15.7c-4.72 1.25-4.59 8.1-5.23 12.29-.47 5.1-2.93 9.8-3.23 14.86-2.19-1.74-4.47-6.93-7.5-9.46-3.77-4.25-6.06-9.38-9.82-13.66-1.98-2.53-6.84-4.52-9.52-2.2-3.28 2.44-4.17 7.26-.85 10.1.94 4.4 4.98 3.69 5.71 7.74-1.15 3.83 2.04 3.66 3.26 6.84 5.22 4.08-4.88 2.38-7.44 3.26-4.38.22-13.78.75-12.26 7.18.2 2.84 3.11 4.6 4.78 6.75 2.25 1.45 5.23-1.15 7.64-.08 2.35-2.05 6.89 1.05 6.34-3.5 2.02.94 4.47-4.23 4.17-.79-1.7 1.1-1.26 3.5-4.34 4.59-2.77 2.9-7.84 2.33-11.35 4.52-4.5.33-9.03 4.1-7.05 8.25.08 2.03 2.7 1.64 3.48 2.66-.58 3.39-5.4 5.24-8.08 7.23-1.97.54-2.78 2.83-1.18 4.26-2.38 6.15 2.32.28 4.78-.46 4.53-1.68 7.24-5.78 12-6.9.7 2.23-5.12 5-7.1 6.92-1.82 2.47-6.37 3.38-7.14 6.34 1.46.84 4.08-.12 5.7-1.06 3.77-.1 5.16-5.43 8.72-4.84 2.33-2.01 3.07 1.13-.17.98-3.01 2.43 0 1.3 1.62.87 2.51-.13 2.47-3.92 4.15-5.44 1.52-2.12 7.02-6.5 6.71-1.42-3.77 3.37-5.05 8.43-8.01 12.4-2.74 1.13-3.56 6.6-.26 3.06 4.05-4.67 2.09 1.55.37 3.51-2.1 1.44-3.19 8.27.87 5.13.92-.86 2.24 6.55 4.05 1.2.5-3.25 3.5-.2 4.45-2.4.82-3.57 3.96-6.96 6.77-9.96 2.8-2.8 3.88-6.95 8.18-7.97 1.78.68 1.1 5.4 3.82 5.82-1.06 2.4 3.76 6 .61 7.58-2.64.83-4.12-11.03-5.11-6.15 1.78 4.2-4.46 7.03.39 10.58 1.9 3.44 2.16 7.6 2.6 11.4 2.49 3.55-4.1 5.35-6.17 7.09-2.04 3.29-5.5 1.18-2.23-.9.47-2.4.97-5.11-.4-7.4-1.53-2.43-6.23-4.13-8.69-2.18-6 1.57-1.86 7.29-5.24 11.14-1.4 2.85-3.62 11.07-6.14 4.34 1.2-5.24.01-10.68-.82-15.89-2.25-6.25.82 7.47-2.03 4.01a64.43 64.43 0 0 0-2.44-15.38c-2.3-1.93-5.3-1.21-7.64.68-2.98 2.06.83 9.5-5 10.12-2.5 2.55-4.2 6.24-1.3 9.3 3.12 2.81 3.65 6.68 4.08 10.53 1.64 2.5 2.82 7.4-1.91 4.65.16-3.68-4.72-4.35-6.67-7.3-2.17-1.38-1.91 1.32-1.81 1.82-1.71-3.05-4.67-5.1-7.26-7.57-3.36-.6-5.07-3.52-8.73-1.93-2.2-.34-4.91 1.64-4.3 3.85 3.15 4.43-3.47-.7-1.44 2.93 2.06 1.85 5.83 7.93 7.89 6.34.86-4.23 2.12 1.43 3.85 1.18-.75 3.03-2.52 5.46-1.42 8.64 2.42 3.35 6.34 1.45 7.77 4.04.33-1.26.05-5.17 2.62-1.56 2.26 2.64 6.64 1.26 9.48 3.4-1.04 3.77-7.93 2.33-10.93 4.9-3.08 2-7.13 3.4-9.44 5.45-2.98-.6-5.7.98-8.47 1.9-1.4 1.21-3.47-.15-4.81.81-2.41.3-3.46.3-4.79 2.61-2.76 1.54 1.13 4.54 1.32 5.89 4.7-2.85-.03 1.16 1.52 2.78 5.07-.73 10.2.07 15.2-1.14 2.4.5 7.04-6.03 7.84-2.82-.42 2.04.54 3.95-1.4 5.92-2.64 2.57-2.76 9.52 1.92 8.76 4.52.43 7.76-1.19 8.87-5.8 3.98-3.76.59 2.55 1.9 4.48 1.13 2.77-2.42 5.27-.95 7.82-.23 4.74-1.4 10.53 2.33 14.15 3.55.63 9.76 2 10.97-2.7.62-2.93-.47-6.16-.07-9.19-1.22-2.36 1.64-8.8 3.89-4.9-1.74 1.44-1.1 3.3-.02 5.57 1.04 5.78 1.01 11.87 2.97 17.42 3.62-.78 3.45 4.45 6.73 2.11 3.45.97 1.76-4.3 3.56-3.36 1.9.13 3.38-4.59 1.42-6.3-.53-4.96.13-10.25-1.75-15.05-1.67-2.61.7-5.3.97-7.8 2.74 3.57 6.8 4.35 9.2 8.52 1.73 2.5 3.94 7.13 8.14 4.62 1 2.15 4.1 3.45 3.43 6.2 3.07-.6-.39 4.08 3.16 4.57.24 3.09 1.87 6.58 2.64 10.3 1.43 5.43 2.61 10.94 4.38 16.31.65 2.89 2.04 6.92-.15 9.42-.86 5.93-8.94 4.64-13.65 5.17-4.51 2.89-8.51-.57-13.31-.43-3.8-2.22-5.44-7.76-9.93-9.24-4.6-3.04-9.12-6-13.05-9.9-4.24-1.64-7.24-6.91-11.95-6.34-3.9.11-7.03-1.2-11.06-.56-2.52 0-5.19-.55-7.07 1.6-2.48.79-5.35.1-7.96.38-2.9 2.06-4.73-3.54-5.61-.72-3.22 4.02-8.88 5.47-13.9 7.33 1.57 4.63-3.45 1.94-5.1.1-4.8-4.82-9.04 2.58-13.9 1.43-2.34 2.68-5.63 2.48-8.9 2.42-6.13.11-1.88 7.73-5.55 8.69-1.46 1.75 1.54 5.64-.84 7.38-1.44 2.75.06 6.7-.22 9.9-.4 3.52 2.3 2.48 4 3.93 3.54.87 3.75 3.21 2.4 6.15-2.7 3.48-1.24 10.76 1.62 12.57 2.84 2.28-2.59.95-.98 3.43.8 3.31-2.22 7.2-.93 10.41 1.1 3.07 3.17 5.52 4.08 9 1.25 2.61-1.02 5.76.66 8.81.62 5.43-.14 10.87 1.46 16.16.78 2.78-.76 5.4-1.1 8.05.59 2.89-1.46 5.62-.23 8.27-1.3 5.5-1.12 11.22-.64 16.82.75 2.98 2.07 5.82 1.9 8.4 1.35 4.77 4.86 8.7 8.72 11.93 1.6 2.8 4.76 1.57 7.31 2.67 4.13-2.17 8.83 2.44 13.56 1.05.9-2.07 1.67-3.94 5.29-2.9 1.9-.4 3.37.98 5.07 1.27 2.49-.47 4.65.13 6.93 1.01 3.68-.65 6.85 0 10.4.51 2.19.09 4.48-.93 6.8.08 2.57 1.12 4.05-3.02.62-2.01-1.71-3.14-3.38-1.16-6-.83-1.96.6-7.13-2.38-3.24-3 2.59 2 4.68-1.12 7 .73 1.44-2.1 4-1.09 6.15-1.23 3.54-.38 8.76 1.3 6.5 5.24 3.13 1.52.23-5.2 3.7-4.31 3.7-2.03 4.56 2.43 7.36.05 3.68 1.58 7.83-.87 11.75.97 4.1-1.97 9.35-.55 12.91-3.84 2.2 2.67 4.8-.58 7.47.23 2.1 1.38 4.29-.42 6.34.26 3.11 1.26 6.7-.12 10 0 3.97.4 7.33 4.01 11.52 4 3.42.18-.93 4.16-.08 6.04-.11 5.45 3.15 10.81.94 16.18-1.38 2.54.06 5.4.62 7.9-4.18.34-8.4-.04-12.57-.07-2.43-1.46-4.98.48-7.55.52-3.67-.1-7.4-1.16-11.1-.23-2.3 1.35-5 .8-7.56.97-3.26-.19-6.58.45-9.7.54-1.82-.92-3.2 1.15-5.03.6-1.67.18-4.13-.7-5.33.14-1.23 2.01-4.23-1.19-6.62-.24-5.05.95-10.5-.55-15.33 1.52-5.06.14-11-.1-16.3-1.07-3.47.33-7.36-1.67-10.51-.06-2.52.63-5-2.24-7.27-.35-2.68.36-5.5.93-8.26.65-3.53-.31-3.12 4.12-4.56 3.58 1.97-3.45-3.33-4.53-6.06-4.25-3.07-.82-8.58 3.86-3.54 5.57-2.8.52-4.67 4.03-7 6.34.4 2.21-.09 4.68.98 6.7-.48 3.07-1.27 6.66-.14 10.68 3.08 4.69-.94-4.5 2.47-3.25 3.71 2.11 1.6 4.9-1.1 5.74-.5 3.54 1.38 1.57 2.83 1.76-.74 2.1-2.25 4.76-1.79 7.91.8 5.72 3 10.8 5.55 15.85.08 5.42-6.5 1.37-6.28 5.6-2.13 4.2 2.91 6.38 5.97 4.2 5.33-1.73 10.56 6.26 14.52 1.52.59 1.68 5.07 2.52 8.38 2.16 4.86-1.64 7.43 1.81 12.2.88 2.89 1.32 5.7.88 8.73.58 1.92 4.1 6.44-2.6 10.16-1.3-4.11 1.94 3.1 2.5 2.45.97-1.98-3.51 4.32-.8 5.34-1.8 1.99-2.48 3.33 3.22 5.82 2.3-.14-3.24 5.25-3.66 7.1-1.62-2.22 2.36 1.01 1.77 2.27.32-2.74-1.24-.89-2.36 1.26-2.25 1.5-1.38 3.87-.5 6.06-.88 3.8-2.65 4.66 3.64.36 1.9-1.2.26-7.73.8-6.15 2.72 2.26-.57 3.36-1.65 6-.1 5.25 1.75 3.15-5.39 7.08-4.8-2.2 6.02 4.08 3.09 7.59 2.56 5.98.83 11.53-1.95 17.33-2.7 3.03-.14 8.14-4.08 10.33-1.37 3.26-1.07 3.2 1.49 5.99 2.38 4.17.1-1.14 2.99 1.58 3.63 4.08.89-1.34-1.16 1.36-2 1.6-1.18 8.18-.35 4.93 1.91 2.07 3.12 3.93-2.13 6.4-1.75 1.83 3.16 2.95 1.41 5.2.38 4.2-.69.75.9 1.7 3.24 3.47-.34 2.42-3.25 5.16-3.99 4.11-1-.92 2.88 1.8 2.84 1.92-3.55 3.88.55 6.66-.12 2.96-.75 5.48-4.32 9.28-3.34 2.55 2.15 5.84.53 8.9 1.42 2.18-4.69 3.26.57 6.05.3 2.84.65 6.73-.4 8.87 1.64 2.04-2.45 5.2.17 8.06 1.03 2.9.73 6.34.5 9.45.68-3.6 2.6 3.54 1.97 4.97 1.22 4.3-1.98 8.68-2.16 12.55-4.84 4.78-1.4-1.68 4.18 2.87 3.05.67-1.77 2.58-3.05 4.88-.9 5.43 1.56 11.16.79 16.75 1.27 3.06 1.52 5.55 2.28 9.02 1.92l1.04.4.72-.06c3.33-2.58 8.46.17 10.7-2.81 3.37-4.68 4.92.23 8.38.42 4.93-.83-.6.13-1.47-2.16 1.6-1.19 5.3-.8 5.63 1.2 4.79 1.65 9.8-.74 14.74.35 4.82-.42 9.74 1.88 14.34.54 2.94-.07 6.06-1.84 8.87-.53 5.37-.91 10.75-1.76 16.17-2.4 4.03.82 7-.57 11.06-.35 3.28 0 6.24-2.36 8.55-4.48 2.52.49 3.66-1.62 1.14-3.3 3-.52 9.94-1.92 8.99-6.63-1.12-3.1-.92-6.87-4.49-8.76-2.12-1.82-.47-5.36-.48-7.76.43-3.56-2-7.22-1.17-11-1.44-4.43 1.04-8.6-.35-12.82 1.73-4.74-2.98-8.54-6.62-10.23-6-3.37-7.96 7.09-13.12 4.46-3.6.44-6.6-1.6-9.93-.92-1.76-.13-3.51-.59-5.11.57-3.86-1.17-7.9-1.24-11.9-1.17-2.32-.42-4.53 1.47-6.64-.18-4.25.25-8.7.5-12.85-.02-2.57-2.27-6.75.18-9.8-1.63-3.09-.42-6.08-2.07-9.16-2.05-4.66-.43-9.07-2.25-13.77-2.7-2.46.1-4.97.85-7.5.36-1.93-.79-3.77-1.96-5.91-1.16-3.28 1.02-6.24-3.29-9.1-.95-2.8.17-5.81-.37-8.7-.21-2.57.22-4.5-1.43-7.16-.32-8.27-1.46-16.71.05-24.97.82a11.53 11.53 0 0 1-2.67-8.3c-2-2.64 1.1-5.7-.77-8.78-1.2-1.8-.87-4.04-.72-6.05 1.74-3.2.92-6.58.77-9.9.35-4.83 3.99-4.76 7.8-5.65 1.64.4 3.42 1.06 5.28.53 3.06 2.33 2.2.63 5.23 1.3.14 3.13 3.66 1.73 6.58 1.75 3.06-2.5 6.84-2.6 10.97-1.11 3.42 1.54 6.55-1.69 9.9.18a18.87 18.87 0 0 1 11.25-1.97c1.88.58 3.5-1.13 5.29-.16 2.07-1.43 8.81-3.26 7.56.37-6.3.71.88 2.82 3.51 1.92 5.7-.9-2.55-1.04-.58-3 2.2-.6 3.22 1.84 5.6.91 2.7-.79 5.46.56 7.98-.58 5.01.8 10.53-1.31 15.84-1 2.39-3.18 6.22 1.42 9.59-1.9 3.44-.57 7.18-.59 10.46-1.54 3.09-1.87 4.58-5.36 8.78-4.29 1.88.4 3.09-1.1 4.72-1.36 3.44-.15 6.92-.84 9.98-2.19 3.21-.2 6.1.32 8.7-1.65-.81-.8-2.67-1.97 1-1.21 2.57-3.07 8.73-3.02 11.65-6.88 1.93-1.6 2.1-4.4 4.63-5.77.4-4.43 1.93-9.03.17-13.24 2.07-5 5.57-9.34 6.88-14.57 3.06-2.88-.12-4.94.1-7.94-.37-2.14.82-4.9-1.25-6.31-2.46-4.33-5.46-8.62-5.14-14.08-2.26-1.89-1.77-5.15-3.93-7.2 1.42-5.13-2.64-8.85-4.06-13.55-1.65-2.64 2.03-5.86.16-8.85-1.18-2.44.93-3.58.45-5.82.23-3.12 2.13-6.35 1.64-9.95.05-1.89 1.64-3.41 1.06-5.46.14-2.24 1.74-3.83.5-6.25-1.38-1.67-3.4-5.15-4.83-6.38-.46 2.84-6.38-.75-6.9 4.25-.61 4.06-4.3 4.11-3.39-.35-1.06-3.5-5.3-4.42-7.78-6.49-3.56.74-6.32 4.23-10.06 4.4-3.07-.37-5.73 1.67-8.28 3.07 3.47 4.05-1.1.03-3.18-.05-.16 2.97-.73 4.73 1.11 6.97-4.07 1.3-2.08-4.45-5.38-4.17-1.79.14-3.76.68-4.6-1.37.2-2.14.51-4.3-.57-6.26 1.6-2.83-2.69-5.45.75-7.74 1.02-3.86 6.29-2.4 8.75-5.17 3.96-1.96-1.16-1.11-.39-2.86 3.8 2.77 5.03-2.37 8.88-3.1 4.32-3.23 10.12-4.91 13.25-9.53 2.42-4.54 7.45-7.25 10.66-11.38 1.75-2.6 4.88-5.04 4.25-8.52-.08-2.33-.06-4.58.71-6.73.31-2.18.93-4.1-.17-6.03 1.56-3.64-3.5-5.7-1.7-9.27-2.63-4.1-4.44-9.86-8.59-12.35-3.63.57-2.74-1.76-3.5-3.15-3.1-.71-6.55-1.3-9.6-.06-1.9-2.28-4.72.54-6.07.34-3.05-2.1-6.26.82-8.86 2.45-6.08.36-7.68 5.89-11.32 9.46-3.29 4.41-2.43-.9.21-2.34 3.65-2.08-.19-2.96-1.12-.21-3.8 4.03-6.4 8.95-10.46 12.88-3.88 2.3-2.13 7.2-4.97 10.32-2.31 2.89-1.33 6.6-4.76 8.4-2.57 2.5-4.02 6.5-7.7 7.67-3.52 2.84-8.4 1.8-12.78 2.07-2.64-1.36-7.19 1.27-6.43-3.54 2.05 3.27 6.31-2.17 2.99-5.73-2.8-6.68-2.4-14.15-2.59-21.32-.95-4.4-1.75-8.9-2.01-13.45-1.87-4.56 3.16-4.37 5.04-1.19 1.4 2.39 3.54 3.4 3.46 6.77a18.4 18.4 0 0 1 6.32 10.17c2.59 3.3 2.54 7.07 4.92 9.92 3.92 5.05 10.08 1.79 12-2.94-.54-5.11-3.12-9.68-5.43-14.17-1.8-2.28-1.1-5.8-3.42-7.63-1.87-1.51-3.93-6.7-.95-7.17 2.6 1.37 5.66 1.38 7.19 3.83 3.53 3.76 10.24 3.36 14.03.27 2.53-5.4-3.38-10.88-8.41-12.34-3.4-.23-5.47-2.07-8.42-4.31.95-2.73 7.95-3.5 8.27-8.15 2.54-5.15-5.88-6.72-4.89-10.46 1.93-1.39 5.49.77 7.46-2.31 2.78-.62 5.85.12 8.71-.02 4.12-.27 9.4.06 12.51-2.9 4.32-2.02.87-8.9-3-9.79-6.1-.52-12.4.01-18.5.7-3.08.4-6.08 1.3-9.17 1.42-2.6-.4-4.97.49-7.5.98-1.92 1.36-4.19 1.14-6.42 1.19-1.85.73-4.7-1.09-2.91-3.06 4.91-3.23 9.12-7.54 13.85-11.1 2.63-2.8 1.31-6.84-1.99-8.3-1.72-3.32-4.62-.38-6.34-1.21 1.21-1.59-.2-4.46-.04-5.19 2.74-.81 2.38-6.5 2.64-9.1-1.54-3.7-5.87.25-8.59-2.13-4.3.22-4.27 7.4-6.91 10.17-.96 3.9-3.61 7.57-2.77 11.71-.98 4.2-3.2 8.23-5.4 11.65-5.38 1.03-.35-6.25-4.6-7.92.22-4.55-.37-11.24-6.43-10.75-5.35 2.18-2.92-7.19-6.6-8.56-3.17-3.2-7.06-3.45-10.48-.67-2.8 4.03.78 9.43 2.9 13.06 1.25 3.4.16 8.57 3.95 10.48 1.33 1.98 2.74 7.63-1.63 6.61-2.75-.08-2.49-4.75-5.76-2.83-.5-3.03-2.18-7.4-5.52-9.2-4.99-.91-9.8-7.01-15.19-4.9-5.24-.32-7.4 5.06-3.9 8.7.88 3.44 4.5 3.34 4.9 7.27 2.39 2.3-.76.87-2.47.91-4.42.84-8.6-.35-12.55 1.46-2.99.42-5.87-1.2-8.98-.09-2.78.18-7.93 2.82-6.44 6.19 4.1.97-.76 4 2.86 5.2 4.26.89 9.04.7 13.18.81-1.55-1.7-8-.67-10.58-3.3 1.05-2.62 8.18-1.26 11.3-.8 1.98 2.02 5.2.2 7.56 1.58 4.09.68 8.6 2.58 11.72 3.72 1.71-1.63 3.1 1.01 2.3 2.6 2.3 1.8-3.53-2.04-4.59.22-1.65 1.62-3.64 2.5-5.93 1.86-1.52.35-2.91 1.51-4.59.78-2.18 3.4-2.08 8.28 2.2 9.9 2.94 1.77 4.96-2.24 8.03-1.36 2.6 1.69-1.8 4.79-3.54 5.72-5.42.88-8.93 5.5-13.3 8.32-2.42.05-3.56 2.37-5.24 3.79-2.81 3.31-.21 7.93 4.12 8.55 4.2-.12 9.35-2.56 10.47-7.02 3.66 1.56 6.72-1.87 9.37-4.15 3.8.11 3.17-5.85 6.57-4.13a36.5 36.5 0 0 0 11.22-8.1c4.73 2.15-.26 6.43-3.3 7.15-3.97 4.06-8.57 8.2-13.77 10.58.27 1.43-2.45 5.06-.71 7.1-.98 2.5-3.87 3.44-4.42 6.24-5.53 2-7.52 9.3-.39 11.14 3.74 2.69 2.78-2.7 4.88-2.75 2.86 1 4.21-2.38 6.15-3.8 2.13-4.6 7.13-6.9 9.57-11.36 4.11.4 5.61-3.72 8.52-4.05-1.65 4.06-5.3 9-6.78 13.88-2.23 3.51-5.46 7.06-4.97 11.54-1.96 2.04-1.5 5.06-2.7 7.5-.42 5.05-3.1 9.55-3.63 14.53-1.19 2.84-3.86 7-3.38 9.1 1.53 1.23-4.1 6.97-1.23 9.76 3.66 3.69-6.33 6.07-2.62.91-.48-3.58-1.37-7.35-.82-10.91a44.39 44.39 0 0 0-13-5.97c-2.22 3.4-3.04-.83-3.82-2.92-2.38-2.09-.06-4.24-.13-6.51.6-2.61.1-4.67-.74-6.8a6.27 6.27 0 0 0-3.3-6.7c-2-1.83-3.34-4.68-3.04-7.42a11.78 11.78 0 0 0 1.18-7.95c-.77-4.97-4.34-7.6-8.7-8.25-3.31-1.19-7.16-1.96-10.5-3.85-4.6.08-.45-2.5-1.37-4.67-3.48-1.75-1.36-5.13-4.26-7.55-2.42-4.53-7.68-5.83-10.07-10.5-3.55-.79-.4 1.3-1.19 2.32-1.35-3.12-4.41-.54-7.44-1.15-3.07-.04-2.72-2.67-3.9-4.37-4-3.34-5.4-8.2-6.45-13.03-1.15-2.27-2.67-4.4-2.18-7.07.7-3.3-3.27-5.81-2.1-9.05 2.45 1.43 5.56-.25 7.8 1.75 3.72 1.06 8.55 3.35 11.5-.08 3.6-1.56 1.08-2.78 1.1-4.82 3.07 1.4-.18-1.89.24-3.17-1.73-3.03-7.32-4.53-10.77-6-2.3-.41-8.34-5.01-4.43-3.85.53-5.42-6.72-8.06-11.03-8.69-3.75.23-6.35-3.62-10.2-3.9-.31-3.17 3.7-2.47 5.56-1.8 4.06-.67 10.83-4.05 13.54-2.71-3.57 4.02 6.45 1.4 8.24-.07 0-2.78 5.02-5 .76-6.95.26-2.65-.09-5.2-1.29-8.04-3.45.26-7.15-.58-10.36.88-2.08-3 3.97-7.24.2-11.04-2.21-2.66-6.43-4.1-9.4-1.81-3.27 3.1-3.93-.05-4.03-2.92 5.14-1.15 1.73-7.7-1.41-8.77-2.2-1.82-4.86 2.9-5.32.54.26-3-.53-5.7-3.2-7.2-2.19 1.02-3.68.36-5.67-.48zm11.9 77.8c1.05.02 1.06 3.75.58 5.24 2.71 2.86 4.76 6.8 5.53 10.62.68 4.16 2.48 8.25 3.28 12.47-1.81 4.75 4.8 7.53 3.85 13 1 2.25 3.65 8.58-.88 7.75.04.8-1.58 4.35.24 5.06 1.33 1.13 2.08 3.38 2.94 4.77-1.01 4.15 4.03 6.6 2.75 10.07-.23 1.25-1.94-.74-2.56-.74-3.24-2.04-6.07-5.36-5.68-9.38-3.7-.47.94-4.22-2.86-4.53-4.29 1.2-2.43 11.05-9.24 10.5-5.13-1.3-9.93-2.5-14.12-5.53-3.89-4.88 6.3-7.71 9.88-8.84 4.06-.22 9.17-2.66 9-7.18-2.3-4.99-8.19-5.41-12.4-2.93-4.5 2.18-9.46 3.6-13.7 6.31-5.6.96 1.79-5.14 4.01-5.7 4.52-1.32 7.74-7.88 12.68-6 .89 2.09 1.43 1.83 4 .52.86-.76 4.3-4.33 1.6-5.19-.44-2.8 1.82-7.68-1.28-9.18 4-1.8-.43-6.92.84-10.83 1.94-4.43-3.58-5.3.13-8.84.6-1.04 1.06-1.45 1.41-1.44zm36.33 46.03c.19.02.43.11.75.3 2.44 2.8 5.27 5.89 7.6 8.6-2.16 4.11-.35 7.2 4.23 8.24-.2 4.67 7.33.55 5.28 3.92 4.7 2.68 11.42 1.62 12.49 8.05 1.19 3.9-.97 3.28-2.16.06a15.97 15.97 0 0 0 .18 10.91c4.23.48 5.42 3.76 4.48 7.4.56 2.61 2.73 6.36.63 8.43 1.13 2.4 2.46 4.98-.85 6.8-3.32 1.35-5.16-1.62-7.89-2.77-4.67-3.01-10.73-4.28-12.24-10.65-2.88-2.3-3.08-9.48-7.53-8.95-1.08-2.02.07-4.89-1.88-6.5-.16-3.06.1-6.01-.55-8.94 1.56-3.63-4.38-5.26-2.68-9.68.73-2.07-1.93-2.77-1.47-4.7.13-2.42-3.17-7.05-.32-7.7 2.03.68.62-2.93 1.93-2.82zm177.13 14.04c1.56 2.5 3.4.63 5.44.5 1.31 3.38 5.48.37 7.95 1.63 5.49 3.16 4.42 10.35 6.35 15.57-.3 3.75 1.83 9.53.18 12.17-3.4-1-5.34 2.87-6.63 5.38 2.7 2.6 5.31-3.86 6.4-3.55 3.36 5.4-3.87 6.48-7.4 7.7-3.15-1.46-6.54.46-9.02 2.32-.93 1.53-8.6 5.55-3.11 5.67-1.26 1.24-5.15 3.61-7.35 5.45-5.16 2.57-8.89 6.48-13.72 9.57-3.3 2.29-7.23 7.81-5.2 11.47 1.26 2.47 2.23 8.98-2.34 8.42-2.08-1.34-4.95-.5-6.9.34 1.15 2.02.02 3.5.24 5.6 1.26 3.19-4.83 3.89-1.41 6.43.07 4-5.7.76-7.63 3.26-3.91 2.28-6.07-1.56-9.41-2.45-2.7-3.77 3.83-6.64 6.87-4.52 2.76.58 10.05-.13 7.94-4.37 2.01-2.7-.5-6.98-3.76-5.86-3.2 1.02-6.14.93-8.98.98-3.28.35-7.33 5-9.54.08 1.5-2.03 3.28-3.71 5.75-4.46 4.48-3.34 9.42-5.95 14.5-8.34 1.75-2.18 4.9-1.93 6.46-4.21 2.6-.72 4.68-2.72 7.1-3.77 4.44-1.45 6.48-7.35 11.17-8.05 2.9-1.88 5.73-5.1 7.64-8.13.57-3.46 4.13-1.77 5.68-4.53 2.04-3.02 6.78-4.85 7.2-8.8.5-2.47.05-4.6-2.35-5.24-.9-2.44-5.25-1.49-7.24-.32-4.22 1.67-6.24 6.65-10.63 7.64-3.11 2.32-6.26 4.94-9.2 7.57-3.05.58-2.8 5.52-6 4.79.43-4.26-3.23-2.99-6.79-2.72-4.36-.56-1.04-1.7 1.3-1.15 3.82-.16 6.86-2.17 9.05-5.25 2.4-5.17 6.25-8.73 8.94-13.74 2.84-5.46 6.95-10.08 10.12-15.3a54.3 54.3 0 0 1 8.33-7.78zm-80.74 3.06c1.67-.32 3.51 1.02 1.59 3.35 2.15 3.2 1.88 7.42 2.06 11.07a55.18 55.18 0 0 1 2 13.71c.3 3.16 1.44 7.62 4.61 9.1 3.92.03 5.69 3.62.96 4.7-2.01 1.64-2.86 6.19-5.22 8.54 1.45 3.23-.84 3.3-3.92 3.75l-.95.3c-.38-4.1-4.89-3.37-7.82-3.34-1.92-.62-3.33 1.6-5.12.64-5.67 1.02-3.37-4.94-3.92-8.3 2.14-3.88 1.27-8.96 5-12.1 1.3-3.6 1.5-8.15 2.92-11.92 2.59-3.02 1.66-6.25 2.22-9.57-1.76-4.06 4.77-3.95 3.61-7.43.03-1.53.97-2.31 1.98-2.5zm-119.35 5.67c3.86 3.07 10.12 7.17 6.1 13.13.99.26 4.05 5.07.95 7.16-2.89.7 1.7-5.25-3.1-2.6-3.9-1.73-1.09-6.28-3.67-8.45-1.8-2.53-5.6-9-.28-9.24zm-27.42 6.3c2.2.34 5.6 2.45 7.63.9 2.5-1.3 2.4 3.65 5.8 1.73 2.75.41 3 3.4 3.37 5.72-.29 3.51 3.7 4.88 2.32 8.93 2.02-.31 1.29 3.84.59 5.69-.5 3.13.76 6.83-2.03 9.28-1.4 1.93-1.44-.31-1.8-1.26-2.88-2.94-1.04-6.85-3.27-10.04-3.14-1.83-3.34-4.27-5.41-6.26-2.32-4.47-6.22-8.23-9.35-12.2-.08-2.25.82-2.69 2.15-2.49zm31.97 28.64c1.22.21 2.89 2.56 4.05 3.79-.96 2.07 1.71 1.63 2.19 3.73 1.42 3.2-.76 7.29-1.22 10.57l-.52.43-.48.03c-2.14-4.05-10.5-3.46-7.32-9.47-.05-2.87-1.5-5.97 1.82-6.47.2-2.1.75-2.74 1.48-2.61zm146 .14c.34.04.55.3.54.86-2.4.83-1.09 3.5-3.4 4.21-6.73 2.26 1.45 3.8 4.35 4.05 2.08.7 4.01-1.18 6.11.08-1.85 3.72-7.03 7.94-11.7 8.52-5.53.11-6.93 5.51-11.12 7.83-3.02 2.47-7.27 1.1-10.45 2.7-2.66 2.57-6.11 1.93-9.43 2.35-2.57 1.3-4.85 4-5.08 6.52-2.22.34-4.63-1.57-6.58-2.5-1.2-3-3.05-7.68.38-9.96 2.15-2.53 6.88-3.83 9.86-2.21 3.08 1.5 7.41.95 10.87 2.18 2.14-1.19 5.65-1.28 7-4.09.93-1.96 4.15-3.3 3.43-5.71-.6-2.25-5.24-.8-4.67-2.7 1.52-.71 3.75.67 5.23-.68 4.4-2.02 7.83-5.26 11-8.82.62-1 2.69-2.76 3.67-2.63zm-117.94 7.14c2.34 2.22 9.52 5.61 6 9.27-2.84 4.13-2.65 9.58-4.5 13.95-1.83 1.64-4-1.03-5.73-1.7.92-1.23-2.47-2.82-1.41-4.51 4.94 3.03.88-2.18 1.89-4.5-.61-2.12-.97-4.16-.48-6.41 2.64-1.36 1.63-5.5 4.23-6.1zm27.76 3.77c.37-.07.3.26-.68 1.2 1.51.44 4.06-2.62 5.36.81 2.85-1.83 7.51.66 7.39 3.97 1.63.15 2.25 1.33 1.6 3.47 2.75-1.64 1.47 1.92.26 3.38.06 4.53-4.94 6.97-3.18 11.37.07 4.16 5.79 4.25 8.7 2.3.74.14-1.02 3.97 2.7 3.14 3.44 2.14 8.72 1.44 13.43 1.32.98 3.65 6.2-2.88 5.33 2.26-.27 2.8 1.8 7.65 4.6 7.11 2.45-.16 5.48.47 6.19 3.35 5.22-.15 10.85 3.3 15.7 0 2.17 3.13 5.62-2.37 7.24.7-1.72 3 .3 3.8 1.24.59 1-3.95 4.76-4.64 8.43-3.4-.37 1.37-6.82-.22-5.18 3.65 2.19 3.53 5.74 6.17 10.1 6.47 4.01-2.77 6.02 2.6 10.26 1.08 4.07-.48 6.47-4.5 10.27-5.37 3.2.73 4.68-2.96 7.75-2.59 2.47-3.4 5.24-3.05 8.92-3.8 3.98.22 5.93-3.81 9.68-3.91 1.91 2.27 3.11 5.43 7.16 4.39 6.46.4 3.84 8.38 4.05 12.62.3 5.17.58 10.72 2.86 15.36 3.48-1.66.62.6 1.34 2.97-1.23 1.44-.96 1.4 1.46 1.85.53 2 1.65 5.92 1.37 8.27-1.88-2.04-5.7-2.29-5.44 1.6 1.87 2.66-2.45 5.69.36 8.3.12 3.08-.52 6.74 1.75 9.38.9 2.13 1.76 4.14 1.32 6.51.35 3.58 2.76 6.92 1.6 10.88-.58 2.64.51 5.04.99 7.6.01 4.12-6.37 6.29-9.41 6.57-1.54 4.06-5 6.04-8.58 3.97-3.91.01-8.08.32-11.8 1.07-4.31 1.66-9.4-.54-14.15 1.46-2.39.98-4.26.52-6.37-.18-6.05 2.02-4.31-5.6-8.83-6.56-1.36-2.9-4.4-1.83-6.85-1.7-2.18 1.83-5 .87-7.57 1.14-6.13.86-12.2 1.96-18.43 2.24-3.74 1-7.15 1.66-11.14 1.73-3.1.38-5.63 1.2-8.32-.95-2.35 3.93-4.94-.25-7.88.63-2.58.29-5.39.07-8.07-.55-5.21.34-10.32 2.14-15.4 1.99-3.42-.14-7.14-.4-10.28-.48-3.78 3.62-9.61 2.25-14.17 1.22-4.45.25-9.08.45-13.56.18-2.77-1.9-6.04-.58-8.97.2-2.67 1.25-5.7.62-8.58.8-2.2.35-4.18 1.67-6.6 1.21-2.72.63-4.63-1.6-6.94.22a13.72 13.72 0 0 0-6.53-.6c-2.47-.47-5.35-1.48-7.77-.66-4.48 3.02-7.47-1.76-12.2-.48-4.62-.52-8.88 1.74-13.5 1.5-2.59 1.96-6.08.14-8.63 2.12-3.35 1.15-7.4-.47-10.84.83-.67 3.81-3.97.77-5.92 1.65-1.15 1-2.54.26-3.57-.5-3.11-.42-6.38-1.16-9.58-.7-2.83-1.98-5.13.67-8.1-.54-4.37.63-8.09-2.2-11.75-2.17-2.05.12-4.39-1.48-6.63-1.2-4.71 1.05-9.97-.68-14.09-2.72-4.63.7.36-7.48-.9-10.23 2.1-3.27.7-7.8.81-11.21-.26-4.35-1.9-9.17-1.77-13.84a115.36 115.36 0 0 1-3.08-13.93c-1.76-3.33-.55-7.26-1.92-10.77.15-2.37.58-3.94-.94-5.4 1.14-3.12-1.61-5.43 1.22-7.41-.47-1.56-3.54-9.49.22-6.01 1.94-.18.75-3.17-1.93-1.79-3.68-.55 1.65-4.93 3.98-5.15 1.01-3.67-1.15-6.88-1.32-10.45-2.29-1.98.3-2.52.06-5.2-3.4-3.2 2.52-3.45 4.01-5.52.33-2.05 3.22-4.93 4.97-2.75 2.13 2.9 2.32-4.4 5.64-1.63 2.64.08 6.29 1.3 7.66-1.9 4.1 1.46 8.45-4.64 12.22-2.97 4.41-.72 4.1 5.03 8.23 3.77-.3-2.28-.78-2.79 2.16-1.34-1.3 2.25.15 3.12 2.85 2.63 1.55-.36 3.46 1.3 2.73 2.85 1.67 1.6 3.04 4.72 5.35 4.97 3.38-1.06 5.14 2.4 7.99 3.27 1.96 3.26-.85 2.69-2.66 1.18-3 1.16-4.14 4.22-4.25 6.87 2.02-3.57 1.08 3.17 2.86 4.22-3.88 1.26 2.12 4.28.18 6.74a109 109 0 0 1 .86 13.85c1.32 4.59 1.48 9.43 2.51 14.08 1.85 2.02 3.1 6.12 1.21 8.21 3.77 2.93-3.44 6.15.37 8.62-.06 2.56 1.63 4.78 2.2 7.25.46 2.39-3.17 3.6-.7 6.3.95 4.45 2.44 1.66 1.41-1.19-.7-4.43 2.53-.32 1.55 2.3 2.17 3.83-2.16 1.55-1.41 4.98 3.37 1.07 2.67 3.87 4.13 6.05 2.23.03 5.88.22 8.11-.91 2.36-2.13 4.73-5.55 8.2-2.62 2.32-1.28 3.96.23 6.5-.66 3.16-.43 6.53.2 9.48-.27 1.96 1.63 4.5-2.3 6.53.1 2.47 1.55 4.2-1.69 6.6-1.67 3.3.28 8.37 1.84 9.26-2.27 3.26.27 4.1-3.74 6.63-5.75-.83-1.02.36-4.12-1.61-5.9-2.9.88-6.36-6.1-4.05-5.6.35-.04-1.63-4.67-.5-6.52-1.08-2.15-1.2-4.45-1.07-6.82.02-4.08.68-7.82-.2-11.82-2.89-.79.56-6.5-2.74-8.85-.77-3.06.04-6.6-.6-9.66-6.86 3.09 3.25-3.85-1.69-5.35-1.8-3.61 3.32-3 2.42.22 3.4 3.55 5.3-5.27 9.12-4.92 3.17 1.56 1.7-3.88 3.65-1.82-1.55 1.9.73 7.44 1.34 2.46 2.71-2.93 1.74 2.53 2.58 3.43 2.43 3.27 5.7 3.8 9.4 4.77 1.27 2.21 2.55 2.04 5.42.5-.77.11-6-1.16-3.08-3.75 3.4-.13.97-2.6 4.2-3.28-.72 7.14 5.58-.02 5.93-3.31-1.53-3.1 1.05-2.62 1.88-3.81-.79-3.1 1.2-5.25 2.42-7.88-.22-3.25 1.97-6.9 1.64-10.27.31-4.64-1.1-10.88 3.9-13.57-.62 2.9 1.11 4.75 4.9 2.7 3.93-1.32 3.03-5.82 2.81-9.12-4-.95 1.08-4.61 2.2-4.8zm-59.43 13.68c.42 3.09 1.32 4.25 3.67 5.6-2.3.83-.74 4.13-1.41 5.98-2.69 1.24-.77-3.2-2.86-3.74.87-2.33-2.81-7.65.6-7.84zm30.6 14.8c.92-.02 1.67.19 1.94.71-1.74 4.21.68 11.47-4.96 12.83-1.43.8-4.19.5-5.41-.65.9-2.4 3.64-4.98 3.76-8.05-2.36-2.51 1.93-4.75 4.68-4.83zm-126.5 2.92c-.5.06-1.04.22-1.62.52-3.9-.5-4.74 3.21-2.4 6.14-1.81 3.83 3.1 9.1.1 13.7-2.23.38-2.02 1.66-3.46 2.84-3.69 1.85-5.94 3.59-6.82 8.1-1.34 2.42-3.1 4.53-2.54 7.45-.65 4.53-.86 10.56 4.22 12.14 2.15 4 5.7.81 8.4 3.73.87.4 1.34.86 1.66 1.35l.33.57c.68 1.96-1.06 4.36 1.01 6.18.14 2.94 3.05 4.78 1.94 7.77 1.47 2.52.78 5.7.3 8.4 1.85 4.38-6.85 3.98-4.82 6.96 3.91-.32 5.08 2.8 4.7 6.05-1.34 2.31.68 4.01 2.01 6.37 2.02.85 5.93.17 7.15-1.66 2.65-2.32 1.56-5.76 3.45-8.31 3.18-1.4 7.37-3.18 10.44-5.65 2.4-2.73 5.47-6.43 6.45-10.23.47-2.79-1.52-5.74.16-8.2-1.37-5.24-5.37-9.63-8-14.27-2.46-2.74-6.55-2.58-10.18-2.11-4.9 3.09-.19-4.16-3.36-5.12-1.23 3.73-.87.13-1.3-1.88-.47-4.84 1.4 2.17 2.13-.45-.95-1.82-1.12-4.12-.87-6.3-.25-4.54 3.99.19 5.75.27 1.1 1.67 6.54 3.91 9.69 2.64 3.9 3.6-4.15 2.58-3.31 6.6 2.34-2.43 5.27 3.02 5.63-1.73 3.35-3.35.96-8.11-2.08-10.74-2.72-1.3.08-4.2-2.22-5.72-5.42 1.8-4.66-4.85-8.97-5.86-2.07-1.85-6.53-1.5-2.91-4.72a8.02 8.02 0 0 1-4.22-6.8c-.97-3.3-2.9-8.4-6.44-8.03zm78.12 15.14c2.8 1.93 5.23 5.07 2.76 8.36.48 3.6 2.33 8.15 3.16 12.05-2.22 3.5 2.31 3.44 1 5.93-1.01 1.13-4.21-.87-3.88 1.76-.1 4.03.8 8.18-.36 12.07-2.65 2.74 2.58 5.32.24 7.5-1.84 2.95 3.08 4.88 1.9 8.31 3.63 2.01.57-6.49.92-8.53-1.4-3.28 1.7-6.17-.61-9.05.97-2.03 1.08-4.13.96-6.32 1.58 2 1 8.3 1.1 11.82 1.2 5.07-.5 10.64 1.98 15.28-1.35 2.02-6.72 2.16-5.88 5.9-2.26.5-1.46-2.65-1.29-3.8-3.75.01-7.72 4.84-12.33 2.92-3.6-.71-6.9.44-10.47-1.88 3.14-1.14-1.56-3.47-2.7-.51-3.8 3.37-.7-3.74-2.03-5.81-1.23-3.5 4.59-9.77-.97-9.82-2.23-1.3.35-4.58-1.36-6.23-.35-3.82-.5-7.38 2.32-10.29 4.93-2.12.9-5.66.93-8.72 2.05-2.59-.99-4.62-.12-7.5-1.56-4.08-9.94-3.36-7.32-9.15.79-3.8 4.6-2.16 6.78-1.97 2.4.86 4.74 1.7 8.07 1.05 3.07 1 4.9-1.9 7.68-1.62 3.38 1.92 6.34-2 9.52-1.75zm-80.13 13.27c.63.13 1.33.77 2.15 2.2-.5 1.47-1.01 3.18-.56 4.94-.29 3.7 2.4 8.1.53 11.4-.57.84-1.98.84-2.28-.26-1.58-1.13-6.1-.85-5.63-4.3.75-2.61-.03-4.88.16-7.43-4.36 2.36-2.88-3.36.72-1.52 1.77-1.22 3.02-5.42 4.91-5.03zm337.27 24.73c.74.34 1.92 2.7 2.6 3.85.93 2.44 1.77 6-.75 7.93l-1.01.68-.83-.34c-2.34-2.65-.35-6.7-.66-9.87-.08-1.94.2-2.46.65-2.25zm-324 3.32c.54.16 1.17.5 1.93 1.05.37 3.97 5.18 5.42 5.66 9.2 2.6 3.42-.35 6.93-2.25 9.74-.9.27-2.56 1-3.23 0-1.14-3.74.48-8.15-1.6-11.6-2.77-1.9-4.21-9.5-.5-8.4zM98.97 307.7c-1.22-.09-2.51.1-3.23.14-2.33.6-7.21 2.14-3.34 6.55 2.27-.7.35 3.6 3.93 4.78 3.5-.79 1.32 2.2 3.48 3.78 3.5 0-1.64-3.12.1-5.14 1.87-2.57 4.78-4.88 1.83-8.58-.4-1.07-1.55-1.44-2.77-1.53z" display="inline"/></clipPath></defs><path fill="#fff" d="M445.27 250c0 107.84-87.43 195.27-195.27 195.27S54.73 357.84 54.73 250 142.16 54.73 250 54.73c14.42 0 28.48 1.56 42 4.53l136.35 111.11A194.58 194.58 0 0 1 445.27 250Z" filter="url(#drop-shadow-filter-0)" paint-order="fill"/><g id="svg1" transform="matrix(.55 .1 -.1 .55 -920.3 -358.57)" transform-origin="1170.5px 600.096px"><g id="layer2" stroke-width=".26" style="mix-blend-mode:normal" transform="matrix(1.05 0 0 1.02 908.96 344.91)"><path id="rect18" fill="#87aade" d="M113.44 272.74h49.78v72.65h-49.78z" transform="rotate(-7)"/><g id="g63" fill="#71c837"><path id="path19" d="m391.06 156.93-17.5 30.41-32.99 11.35-10.62 16.86-26.08-.34-11.64 14.2 29.37 12.92 37.49 14.36 27.7-11.13-.06-24.66 43.47-32.72-1.9-33.45-16.71-7.62z"/><path id="path20" d="m224 133.46-27.07 18.21 2.97 29.86-1.2 54.6 33.1 21.74 9.8-6.57 10.11-42.28 20.27-4.3-13.95-45.37-17.97-6.38z"/></g></g><g id="layer1" display="inline" transform="matrix(1 0 0 1 921.56 354.75)"><path id="path17" fill="#585858" stroke-width="1.07" d="M346.2 502.08c-3.76.38-6.45-.43-9.75-2.03-6.05-.5-12.24.31-18.1-1.34-2.49-2.27-4.55-.91-5.28.96-4.92 1.19 2.06-4.7-3.1-3.22-4.18 2.82-8.91 3.02-13.57 5.1-1.54.79-9.26 1.46-5.37-1.29-3.35-.19-7.07.06-10.21-.71-3.1-.9-6.51-3.67-8.71-1.1-2.31-2.13-6.51-1.03-9.59-1.72-3.01.29-4.18-5.25-6.53-.32-3.31-.93-6.87.77-9.62-1.49-4.11-1.03-6.84 2.73-10.03 3.52-3 .7-5.13-3.62-7.2.13-2.95.04 2.5-4.05-1.95-3-2.97.78-1.83 3.85-5.58 4.21-1.02-2.46 2.7-4.14-1.84-3.42-2.42 1.1-3.64 2.94-5.6-.4-2.68-.4-4.69 5.14-6.93 1.85 3.5-2.38-3.6-3.26-5.33-2-2.92.87 2.94 3.03-1.47 2.1-2.94-.69 2.8-3.73-1.71-3.83-3.02-.95-2.94-3.64-6.48-2.51-2.36-2.86-7.88 1.3-11.15 1.44-6.28.8-12.27 3.72-18.74 2.85-3.79.55-10.57 3.64-8.2-2.7-4.24-.62-1.97 6.9-7.64 5.05-2.86-1.63-4.05-.48-6.5.12-1.7-2.03 5.36-2.6 6.65-2.88 4.65 1.84 3.72-4.8-.39-2-2.36.41-4.93-.52-6.54.94-2.33-.13-4.33 1.05-1.37 2.36-1.36 1.54-4.85 2.16-2.45-.33-2-2.16-7.83-1.72-7.68 1.7-2.69.98-4.14-5.03-6.29-2.42-1.1 1.06-7.91-1.8-5.77 1.9.7 1.6-7.09 1.02-2.65-1.02-4.02-1.37-8.9 5.68-10.97 1.36-3.28.33-6.32.79-9.44-.6-5.15.98-7.93-2.66-13.18-.94-3.59.38-8.43-.5-9.06-2.28-4.28 5-9.94-3.42-15.7-1.59-3.3 2.3-8.75-.01-6.45-4.44-.23-4.45 6.88-.19 6.8-5.9-2.76-5.32-5.14-10.68-6.01-16.7-.5-3.33 1.14-6.13 1.94-8.35-1.57-.2-3.6 1.88-3.07-1.86 2.92-.88 5.2-3.82 1.2-6.05-3.7-1.31.65 8.37-2.67 3.42-1.22-4.23-.37-8.01.15-11.26-1.16-2.13-.63-4.73-1.07-7.06 2.52-2.44 4.56-6.14 7.58-6.68-5.45-1.81.5-6.74 3.82-5.88 2.95-.3 8.68.84 6.55 4.49 1.56.56 1.12-4.1 4.93-3.78 2.98.3 6.03-.3 8.92-.69 2.47-1.99 5.13 1.04 7.86.38 3.4-1.7 7.6.4 11.36.06a90.26 90.26 0 0 0 17.62 1.12c5.23-2.18 11.1-.6 16.57-1.6 2.58-1 5.83 2.38 7.15.25 1.3-.87 3.95.05 5.76-.15 1.99.59 3.48-1.6 5.44-.62 3.37-.1 6.96-.77 10.48-.57 2.77-.19 5.68.4 8.18-1.03 4-.98 8.03.13 11.99.24 2.78-.04 5.53-2.09 8.16-.55 4.5.04 9.07.44 13.58.07-.6-2.62-2.16-5.64-.66-8.32 2.39-5.66-1.14-11.31-1.02-17.06-.92-1.98 3.78-6.18.08-6.37-4.52.02-8.15-3.8-12.44-4.22-3.56-.12-7.45 1.33-10.81 0-2.22-.7-4.58 1.19-6.85-.28-2.88-.84-5.7 2.58-8.08-.23-3.85 3.47-9.51 1.97-13.95 4.05-4.24-1.94-8.72.64-12.7-1.03-3.02 2.52-3.96-2.2-7.95-.05-3.75-.94-.62 6.15-4.01 4.55 2.45-4.17-3.2-5.93-7.02-5.53-2.32.15-5.1-.92-6.64 1.3-2.52-1.95-4.78 1.33-7.57-.78-4.2.66 1.38 3.8 3.5 3.17 2.83-.35 4.63-2.44 6.48.87 3.71-1.06 2.12 3.3-.66 2.12-2.51-1.06-4.99.01-7.36-.08-3.83-.54-7.26-1.23-11.23-.53-2.47-.93-4.8-1.57-7.5-1.08-1.83-.3-3.42-1.76-5.48-1.34-3.91-1.09-4.73.88-5.7 3.07-5.13 1.46-10.2-3.4-14.66-1.11-2.77-1.16-6.19.14-7.9-2.82-4.18-3.4-7.98-7.55-9.43-12.58.18-2.72-1.25-5.71-2.05-8.85-.52-5.9-.73-11.93.68-17.74-1.33-2.79.89-5.67.25-8.72.38-2.8 2.04-5.55 1.2-8.48-1.73-5.59-.92-11.32-1.59-17.04-1.82-3.22.64-6.54-.71-9.29-.98-3.68-3.22-6.26-4.41-9.5-1.4-3.38 1.86-7.48 1-10.98-1.73-2.6 4.14-1.2 1.07-3.6-3.1-1.92-4.68-9.6-1.76-13.26 1.46-3.1 1.24-5.57-2.6-6.5-1.82-1.51-4.74-.42-4.31-4.14.3-3.36-1.33-7.53.23-10.42 2.58-1.84-.67-5.94.91-7.8 3.98-1-.62-9.03 6.01-9.15 3.53.06 7.08.28 9.61-2.56 5.25 1.22 9.84-6.58 15.03-1.5 1.78 1.94 7.2 4.77 5.5-.1 5.43-1.97 11.54-3.5 15.03-7.74.95-2.97 2.94 2.93 6.06.77 2.82-.3 5.93.42 8.6-.4 2.04-2.27 4.92-1.69 7.65-1.7 4.35-.67 7.74.71 11.95.6 5.1-.61 8.33 4.95 12.91 6.67 4.26 4.11 9.14 7.25 14.1 10.45 4.86 1.56 6.63 7.4 10.74 9.74 5.18-.14 9.51 3.5 14.39.45 5.09-.56 13.82.8 14.75-5.45 2.37-2.63.87-6.88.17-9.93-1.92-5.66-3.2-11.47-4.74-17.2-.84-3.92-2.6-7.6-2.85-10.86-3.84-.5-.1-5.45-3.42-4.81.73-2.9-2.62-4.27-3.7-6.55-4.55 2.65-6.93-2.23-8.8-4.87-2.6-4.4-6.98-5.22-9.95-8.97-.3 2.63-2.86 5.46-1.05 8.21 2.04 5.06 1.32 10.64 1.9 15.87 2.11 1.81.52 6.78-1.54 6.65-1.95-1-.11 4.56-3.85 3.54-3.54 2.47-3.35-3.05-7.27-2.22-2.12-5.86-2.09-12.27-3.22-18.38-1.16-2.38-1.85-4.35.03-5.86-2.43-4.11-5.53 2.67-4.2 5.16-.43 3.2.74 6.6.08 9.7-1.31 4.94-8.03 3.5-11.86 2.84-4.04-3.82-2.77-9.93-2.52-14.92-1.59-2.69 2.25-5.33 1.03-8.25-1.43-2.03 2.25-8.69-2.06-4.72-1.2 4.86-4.7 6.57-9.58 6.12-5.06.8-4.93-6.53-2.08-9.25 2.1-2.07 1.05-4.08 1.5-6.23-.85-3.39-5.88 3.5-8.47 2.97-5.4 1.28-10.94.43-16.42 1.2-1.67-1.71 3.44-5.94-1.65-2.94-.2-1.42-4.4-4.58-1.42-6.2 1.44-2.43 2.57-2.44 5.18-2.75 1.45-1.02 3.69.42 5.2-.85 3-.97 5.93-2.65 9.15-2.02 2.5-2.15 6.88-3.64 10.2-5.74 3.25-2.7 10.69-1.2 11.82-5.16-3.08-2.27-7.8-.8-10.25-3.6-2.78-3.8-2.47.33-2.84 1.65-1.53-2.72-5.77-.72-8.39-4.26-1.19-3.35.73-5.9 1.54-9.1-1.88.26-3.23-5.71-4.17-1.25-2.22 1.68-6.3-4.73-8.53-6.69-2.18-3.83 4.97 1.6 1.57-3.09-.67-2.32 2.27-4.41 4.64-4.05 3.96-1.68 5.8 1.4 9.44 2.03 2.8 2.6 6 4.77 7.84 7.98-.1-.53-.38-3.37 1.96-1.9 2.11 3.1 7.39 3.8 7.2 7.68 5.13 2.9 3.84-2.27 2.08-4.9-.47-4.06-1.04-8.14-4.43-11.1-3.12-3.23-1.28-7.12 1.42-9.81 6.3-.65 2.18-8.5 5.4-10.67 2.54-2 5.77-2.76 8.26-.72a66.41 66.41 0 0 1 2.64 16.22c3.08 3.65-.25-10.82 2.2-4.23.9 5.5 2.17 11.23.88 16.76 2.72 7.1 5.11-1.57 6.63-4.58 3.66-4.06-.81-10.1 5.67-11.75 2.65-2.06 7.73-.25 9.38 2.3 1.49 2.42.94 5.28.44 7.82-3.54 2.18.2 4.4 2.41.93 2.24-1.83 9.36-3.73 6.66-7.48-.47-4-.75-8.38-2.8-12.02-5.25-3.73 1.5-6.73-.43-11.15 1.07-5.14 2.68 7.36 5.53 6.5 3.4-1.68-1.8-5.48-.65-8-2.94-.45-2.2-5.43-4.14-6.14-4.65 1.08-5.82 5.45-8.84 8.4-3.04 3.16-6.43 6.74-7.31 10.51-1.03 2.31-4.28-.9-4.81 2.53-1.96 5.63-3.39-2.18-4.39-1.27-4.38 3.3-3.2-3.89-.94-5.4 1.86-2.08 3.99-8.63-.4-3.7-3.56 3.73-2.67-2.05.28-3.24 3.2-4.18 4.6-9.52 8.67-13.08.33-5.35-5.62-.73-7.25 1.5-1.82 1.6-1.78 5.6-4.5 5.74-1.74.46-5 1.65-1.74-.91 3.5.15 2.7-3.16.18-1.04-3.85-.62-5.35 5-9.43 5.1-1.74 1-4.57 2-6.15 1.13.82-3.13 5.75-4.09 7.72-6.7 2.13-2.03 8.42-4.94 7.66-7.3-5.13 1.2-8.07 5.51-12.96 7.28-2.66.79-7.74 6.97-5.16.49-1.74-1.5-.86-3.92 1.27-4.49 2.89-2.1 8.1-4.06 8.73-7.63-.83-1.07-3.68-.66-3.76-2.8-2.14-4.37 2.75-8.35 7.61-8.7 3.8-2.31 9.28-1.7 12.27-4.77 3.34-1.15 2.85-3.67 4.7-4.83.32-3.63-2.32 1.81-4.5.83.58 4.8-4.32 1.52-6.86 3.69-2.61-1.13-5.83 1.61-8.26.08-1.8-2.26-4.95-4.12-5.16-7.12-1.65-6.77 8.51-7.33 13.24-7.56 2.77-.94 13.69.86 8.05-3.44-1.33-3.36-4.77-3.18-3.53-7.21-.79-4.28-5.15-3.52-6.17-8.17-3.59-3-2.63-8.07.92-10.64 2.89-2.45 8.15-.36 10.29 2.31 4.06 4.52 6.54 9.93 10.62 14.41 3.26 2.67 5.73 8.14 8.1 9.97.32-5.34 2.98-10.28 3.48-15.67.7-4.41.56-11.63 5.66-12.95 2.15.88 3.77 1.58 6.14.5 2.87 1.59 3.73 4.43 3.45 7.6.5 2.5 3.38-2.5 5.75-.58 3.4 1.14 7.08 8.04 1.52 9.25.1 3.03.82 6.34 4.35 3.08 3.22-2.4 7.78-.9 10.16 1.9 4.08 4.02-2.46 8.49-.2 11.65 3.46-1.54 7.46-.66 11.19-.93 1.3 3 1.67 5.68 1.39 8.48 4.6 2.06-.82 4.4-.82 7.32-1.93 1.56-12.77 4.31-8.9.08-2.94-1.42-10.25 2.16-14.63 2.85-2.02-.7-6.36-1.44-6.02 1.91 4.17.29 6.98 4.35 11.02 4.11 4.66.67 12.5 3.44 11.93 9.16-4.23-1.23 2.3 3.62 4.78 4.07 3.73 1.54 9.78 3.12 11.64 6.32-.45 1.35 3.06 4.83-.26 3.35-.02 2.14 2.7 3.42-1.18 5.07-3.2 3.62-8.42 1.2-12.43.1-2.42-2.12-5.78-.35-8.44-1.85-1.26 3.4 3.04 6.05 2.28 9.54-.53 2.81 1.11 5.05 2.36 7.45 1.13 5.1 2.64 10.22 6.97 13.74 1.27 1.79.89 4.57 4.21 4.6 3.27.65 6.58-2.07 8.04 1.22.85-1.08-2.55-3.28 1.29-2.45 2.57 4.93 8.27 6.3 10.88 11.07 3.14 2.56.84 6.12 4.6 7.96 1 2.28-3.48 5.02 1.49 4.93 3.6 2 7.76 2.8 11.35 4.06 4.7.69 8.56 3.46 9.4 8.7.7 2.92.01 5.91-1.28 8.38-.32 2.89 1.12 5.9 3.28 7.82a6.57 6.57 0 0 1 3.57 7.06c.91 2.26 1.45 4.42.8 7.18.07 2.39-2.44 4.66.14 6.86.84 2.2 1.73 6.67 4.13 3.08a48.55 48.55 0 0 1 14.05 6.3c-.6 3.75.37 7.72.9 11.5-4.02 5.44 6.78 2.93 2.82-.96-3.11-2.94 2.98-8.99 1.33-10.29-.52-2.22 2.37-6.6 3.65-9.6.58-5.25 3.48-9.99 3.92-15.32 1.3-2.57.8-5.75 2.92-7.9-.52-4.73 2.97-8.47 5.37-12.17 1.61-5.15 5.55-10.35 7.33-14.64-3.14.35-4.76 4.7-9.21 4.27-2.63 4.7-8.04 7.12-10.34 11.97-2.1 1.51-3.56 5.08-6.64 4.01-2.28.07-1.24 5.74-5.28 2.9-7.7-1.93-5.56-9.63.42-11.73.6-2.96 3.72-3.95 4.77-6.6-1.87-2.13 1.07-5.96.77-7.48 5.62-2.5 10.6-6.87 14.9-11.16 3.27-.75 8.67-5.26 3.56-7.52a39.43 39.43 0 0 1-12.14 8.53c-3.67-1.82-2.99 4.47-7.1 4.35-2.86 2.41-6.16 6.03-10.12 4.38-1.21 4.7-6.77 7.28-11.32 7.4-4.68-.65-7.49-5.52-4.45-9.02 1.81-1.49 3.05-3.94 5.67-3.98 4.72-2.98 8.51-7.85 14.37-8.78 1.88-.98 6.64-4.25 3.83-6.03-3.33-.93-5.5 3.3-8.7 1.42-4.61-1.7-4.72-6.85-2.36-10.42 1.81.76 3.31-.46 4.96-.83 2.48.67 4.63-.26 6.41-1.96 1.14-2.39 7.44 1.67 4.96-.24.86-1.67-.63-4.45-2.48-2.73-3.37-1.2-8.25-3.2-12.67-3.93-2.55-1.45-6.04.47-8.18-1.67-3.36-.48-11.07-1.9-12.2.86 2.77 2.76 9.76 1.68 11.43 3.47-4.47-.12-9.65.08-14.24-.85-3.92-1.27 1.33-4.47-3.1-5.49-1.6-3.55 3.96-6.33 6.96-6.52 3.36-1.17 6.48.54 9.7.1 4.27-1.92 8.8-.66 13.57-1.55 1.85-.04 5.25 1.46 2.68-.96-.44-4.14-4.35-4.03-5.31-7.67-3.77-3.83-1.44-9.5 4.22-9.16 5.83-2.23 11.02 4.2 16.41 5.16 3.62 1.9 5.43 6.5 5.97 9.7 3.54-2.02 3.26 2.9 6.23 2.99 4.72 1.07 3.2-4.89 1.76-6.97-4.1-2.02-2.92-7.47-4.28-11.06-2.28-3.82-6.16-9.52-3.12-13.77 3.7-2.93 7.9-2.66 11.32.71 3.99 1.45 1.36 11.33 7.13 9.02 6.55-.51 7.19 6.55 6.96 11.34 4.6 1.76-.85 9.43 4.96 8.35 2.38-3.6 4.79-7.86 5.85-12.28-.92-4.37 1.95-8.23 2.99-12.35 2.85-2.92 2.82-10.48 7.47-10.72 2.94 2.51 7.61-1.66 9.28 2.25-.28 2.73.11 8.73-2.86 9.6-.16.76 1.36 3.79.05 5.46 1.86.88 4.99-2.23 6.85 1.28 3.57 1.54 5 5.8 2.16 8.74-5.12 3.77-9.67 8.3-14.98 11.7-1.93 2.1 1.14 4 3.15 3.24 2.41-.05 4.86.18 6.94-1.25 2.73-.53 5.29-1.47 8.1-1.04 3.34-.12 6.59-1.07 9.9-1.5 6.61-.72 13.42-1.28 20.01-.73 4.18.94 7.91 8.18 3.24 10.32-3.35 3.12-9.07 2.77-13.51 3.05-3.1.15-6.42-.62-9.42.02-2.14 3.25-5.98.98-8.06 2.45-1.07 3.94 8.02 5.6 5.28 11.02-.35 4.9-7.9 5.72-8.94 8.6 3.19 2.36 5.42 4.3 9.1 4.54 5.44 1.54 11.82 7.32 9.1 13-4.1 3.27-11.35 3.69-15.17-.28-1.65-2.57-4.96-2.58-7.77-4.03-3.22.49-1 5.97 1.02 7.56 2.52 1.94 1.76 5.65 3.7 8.05 2.5 4.73 5.29 9.54 5.86 14.94-2.07 4.98-8.72 8.43-12.96 3.1-2.57-3.01-2.52-7-5.31-10.46a19.34 19.34 0 0 0-6.84-10.73c.08-3.56-2.23-4.62-3.74-7.14-2.03-3.35-7.47-3.55-5.45 1.25.28 4.81 1.15 9.55 2.18 14.2.2 7.55-.24 15.42 2.8 22.47 3.58 3.76-1.02 9.49-3.24 6.05-.81 5.07 4.1 2.3 6.95 3.73 4.73-.28 10 .81 13.81-2.2 3.98-1.21 5.55-5.44 8.33-8.07 3.7-1.9 2.65-5.82 5.14-8.86 3.07-3.29 1.18-8.46 5.38-10.89 4.39-4.14 7.18-9.32 11.3-13.58 1-2.9 5.16-1.96 1.21.23-2.85 1.51-3.78 7.12-.23 2.46 3.94-3.76 5.66-9.59 12.24-9.97 2.8-1.72 6.27-4.8 9.57-2.58 1.46.2 4.52-2.76 6.57-.36 3.3-1.32 7.02-.7 10.37.06.82 1.47-.14 3.93 3.78 3.32 4.48 2.62 6.44 8.7 9.3 13.02-1.96 3.76 3.51 5.94 1.83 9.78 1.18 2.03.52 4.06.18 6.36-.83 2.27-.86 4.64-.77 7.1.68 3.66-2.7 6.23-4.6 8.98-3.47 4.35-8.9 7.21-11.52 12-3.38 4.87-9.65 6.64-14.31 10.04-4.17.77-5.49 6.2-9.6 3.28-.83 1.84 4.7.95.42 3-2.66 2.92-8.35 1.39-9.46 5.46-3.72 2.41.91 5.18-.81 8.16 1.17 2.08.82 4.35.62 6.6.9 2.17 3.04 1.59 4.97 1.45 3.57-.3 1.42 5.77 5.81 4.4-1.98-2.37-1.37-4.22-1.2-7.35 2.24.08 7.19 4.32 3.44.04 2.76-1.46 5.63-3.62 8.95-3.24 4.04-.17 7.03-3.85 10.87-4.63 2.69 2.19 7.26 3.16 8.41 6.84-.98 4.7 3 4.66 3.66.37.57-5.27 6.96-1.48 7.47-4.48 1.54 1.3 3.72 4.97 5.21 6.73 1.34 2.55-.38 4.23-.54 6.59.63 2.16-1.1 3.77-1.14 5.76.53 3.8-1.52 7.2-1.78 10.48.53 2.37-1.76 3.57-.48 6.14 2.02 3.15-1.96 6.55-.17 9.34 1.53 4.96 5.91 8.87 4.38 14.28 2.34 2.17 1.8 5.6 4.25 7.6-.35 5.75 2.9 10.28 5.55 14.84 2.24 1.49.95 4.4 1.35 6.66-.23 3.16 3.2 5.33-.1 8.37-1.42 5.5-5.2 10.1-7.44 15.36 1.9 4.44.26 9.29-.19 13.96-2.73 1.45-2.9 4.4-5 6.08-3.15 4.08-9.8 4.02-12.59 7.25-3.96-.79-1.95.45-1.08 1.28-2.8 2.08-5.93 1.54-9.4 1.75a30.96 30.96 0 0 1-10.78 2.3c-1.77.28-3.08 1.86-5.1 1.44-4.55-1.13-6.16 2.55-9.5 4.52-3.54 1-7.58 1.03-11.3 1.62-3.65 3.5-7.79-1.34-10.36 2-5.75-.32-11.7 1.9-17.12 1.06-2.73 1.2-5.72-.22-8.63.62-2.57.97-3.68-1.6-6.05-.97-2.14 2.07 6.79 2.23.62 3.17-2.83.95-10.6-1.27-3.8-2.02 1.36-3.83-5.92-1.9-8.16-.4-1.94-1.01-3.7.79-5.71.17-4.18-.48-8.42.11-12.16 2.08-3.63-1.97-7.02 1.44-10.7-.19-4.47-1.57-8.55-1.47-11.87 1.17-3.15-.02-6.95 1.45-7.1-1.85-3.29-.7-2.35 1.1-5.65-1.36-2.01.55-3.95-.15-5.72-.56-4.11.93-8.04.86-8.42 5.95.16 3.5 1.04 7.07-.84 10.44-.15 2.12-.5 4.5.78 6.39 2.03 3.24-1.32 6.47.84 9.24-.34 3.09.94 6.68 2.88 8.77 8.92-.82 18.04-2.41 26.98-.87 2.88-1.17 4.97.57 7.75.33 3.12-.16 6.37.4 9.4.23 3.09-2.47 6.3 2.07 9.83 1 2.32-.84 4.3.39 6.39 1.22 2.73.52 5.45-.27 8.1-.37 5.08.47 9.85 2.38 14.9 2.84 3.32-.02 6.55 1.72 9.9 2.16 3.29 1.9 7.8-.68 10.58 1.72 4.48.54 9.3.28 13.88.02 2.29 1.73 4.67-.26 7.18.19 4.32-.08 8.7 0 12.87 1.23 1.72-1.22 3.62-.73 5.52-.6 3.6-.72 6.85 1.43 10.73.98 5.58 2.76 7.7-8.26 14.18-4.72 3.94 1.79 9.03 5.8 7.15 10.8 1.5 4.45-1.17 8.84.38 13.5-.88 4 1.73 7.85 1.26 11.61.02 2.53-1.77 6.27.53 8.19 3.86 1.98 3.64 5.96 4.85 9.23 1.02 4.97-6.47 6.45-9.72 7 2.73 1.76 1.5 3.98-1.23 3.47-2.5 2.24-5.69 4.72-9.23 4.72-4.4-.22-7.61 1.24-11.96.38-5.86.67-11.67 1.56-17.47 2.53-3.05-1.39-6.42.48-9.6.55-4.96 1.41-10.29-1.01-15.49-.57-5.34-1.15-10.76 1.38-15.93-.37-.36-2.1-4.36-2.51-6.09-1.27.94 2.42 6.92 1.42 1.59 2.28-3.73-.2-5.42-5.37-9.07-.44-2.4 3.15-7.95.25-11.56 2.96l-.77.07-1.12-.42zM133.05 357.56c2.1-.92 5.66 2.28 6.4-1.74 3.71-1.37 8.09.34 11.7-.88 2.76-2.08 6.54-.17 9.34-2.24 4.99.26 9.59-2.12 14.6-1.57 5.1-1.35 8.33 3.7 13.18.5 2.61-.86 5.72.2 8.4.7 2.43-.33 4.73-.15 7.05.63 2.5-1.9 4.56.44 7.5-.23 2.62.49 4.75-.91 7.13-1.27 3.12-.2 6.39.47 9.27-.86 3.16-.8 6.7-2.21 9.7-.2 4.84.29 9.84.08 14.65-.2 4.93 1.1 11.23 2.54 15.32-1.27 3.39.07 7.4.35 11.1.5 5.5.16 11.02-1.74 16.65-2.1 2.9.65 5.93.89 8.73.58 3.17-.92 5.97 3.48 8.5-.66 2.92 2.27 5.66 1.4 9 1 4.31-.07 8-.78 12.04-1.83 6.73-.29 13.3-1.45 19.93-2.36 2.78-.28 5.82.73 8.17-1.2 2.65-.14 5.93-1.26 7.41 1.8 4.88 1.01 3 9.03 9.54 6.91 2.28.74 4.3 1.23 6.89.2 5.12-2.12 10.62.2 15.3-1.55a68.8 68.8 0 0 1 12.74-1.13c3.88 2.19 7.61.1 9.27-4.18 3.29-.3 10.19-2.59 10.17-6.94-.51-2.69-1.7-5.22-1.07-8 1.26-4.18-1.35-7.7-1.73-11.48.48-2.5-.44-4.61-1.43-6.86-2.44-2.78-1.75-6.65-1.89-9.9-3.03-2.75 1.64-5.94-.38-8.74-.29-4.1 3.84-3.84 5.87-1.7.31-2.47-.9-6.6-1.47-8.71-2.62-.49-2.91-.43-1.58-1.95-.78-2.5 2.3-4.88-1.45-3.13-2.47-4.9-2.77-10.75-3.1-16.2-.22-4.47 2.61-12.89-4.37-13.31-4.37 1.1-5.67-2.23-7.73-4.63-4.06.1-6.17 4.36-10.47 4.14-3.98.78-6.97.41-9.64 4-3.32-.39-4.92 3.5-8.37 2.73-4.11.92-6.7 5.15-11.1 5.66-4.59 1.6-6.75-4.06-11.1-1.14-4.7-.31-8.54-3.1-10.9-6.82-1.78-4.09 5.2-2.41 5.6-3.86-3.97-1.3-8.05-.57-9.13 3.59-1 3.4-3.19 2.53-1.34-.61-1.74-3.24-5.47 2.56-7.83-.75-5.22 3.5-11.31-.15-16.96 0-.77-3.03-4.03-3.7-6.68-3.53-3.03.57-5.27-4.55-4.98-7.5.95-5.42-4.7 1.47-5.76-2.38-5.1.13-10.8.87-14.52-1.4-4.01.89-2.1-3.15-2.91-3.3-3.15 2.06-9.33 1.96-9.4-2.42-1.91-4.65 3.5-7.22 3.44-12 1.3-1.53 2.68-5.29-.29-3.56.7-2.25.04-3.5-1.73-3.66.14-3.48-4.9-6.12-7.98-4.18-1.4-3.62-4.16-.4-5.8-.87 4.27-3.95-7.4 2.48-1.63 3.8.23 3.49 1.2 8.23-3.05 9.63-4.09 2.16-5.97.2-5.3-2.85-5.4 2.83-3.87 9.42-4.21 14.3.36 3.55-2.01 7.41-1.77 10.84-1.32 2.77-3.47 5.03-2.61 8.3-.9 1.26-3.7.76-2.03 4.02-.39 3.47-7.2 11.02-6.41 3.49-3.5.72-.87 3.32-4.54 3.45-3.15 2.74 2.5 4.08 3.32 3.97-3.1 1.62-4.48 1.8-5.85-.53-4.01-1.03-7.54-1.59-10.16-5.03-.91-.95.14-6.71-2.8-3.62-.66 5.25-3.12-.6-1.44-2.6-2.1-2.17-.52 3.57-3.94 1.93-4.14-.37-6.18 8.92-9.86 5.18.97-3.39-4.56-4.04-2.62-.23 5.34 1.58-5.59 8.9 1.82 5.65.7 3.22-.17 6.95.65 10.17 3.57 2.49-.15 8.5 2.96 9.34.96 4.21.25 8.16.23 12.47-.14 2.5-.02 4.91 1.14 7.18-1.2 1.95.93 6.83.55 6.88-2.5-.52 1.26 6.83 4.38 5.9 2.13 1.88.84 5.15 1.74 6.22-2.74 2.12-3.64 6.35-7.17 6.07-.96 4.33-6.43 2.68-10.01 2.4-2.6-.03-4.45 3.4-7.12 1.76-2.2-2.54-4.95 1.61-7.07-.12-3.18.5-6.82-.17-10.23.29-2.76.94-4.52-.65-7.03.7-3.75-3.1-6.31.51-8.87 2.76-2.41 1.19-6.36.99-8.76.96-1.58-2.3-.83-5.26-4.47-6.38-.81-3.61 3.87-1.22 1.53-5.25 1.06-2.77-2.44-7.1-1.68-2.42 1.12 3-.5 5.94-1.53 1.25-2.67-2.84 1.26-4.13.77-6.64-.62-2.6-2.45-4.95-2.39-7.65-4.12-2.6 3.68-6-.4-9.09 2.04-2.2.7-6.53-1.3-8.65-1.12-4.91-1.28-10.01-2.72-14.85.06-4.9-.34-9.79-.92-14.6 2.1-2.6-4.39-5.79-.2-7.11-1.92-1.11-.9-8.21-3.1-4.45.13-2.8 1.36-6.02 4.6-7.24 1.96 1.58 5 2.19 2.88-1.24-3.09-.93-4.99-4.58-8.64-3.45-2.49-.27-3.98-3.56-5.78-5.24.8-1.65-1.28-3.4-2.95-3-2.92.5-4.49-.41-3.08-2.78-3.18-1.53-2.67-1-2.33 1.4-4.47 1.34-4.13-4.73-8.9-3.96-4.07-1.77-8.77 4.66-13.2 3.12-1.49 3.39-5.43 2.09-8.29 2-3.58-2.9-3.79 4.79-6.09 1.72-1.89-2.29-5.01.74-5.37 2.9-1.61 2.2-8.02 2.45-4.34 5.83.26 2.82-2.53 3.39-.06 5.48.19 3.77 2.52 7.15 1.43 11.02-2.52.23-8.28 4.85-4.3 5.43 2.89-1.46 4.17 1.7 2.08 1.88-4.07-3.66-.75 4.7-.24 6.34-3.06 2.09-.09 4.53-1.32 7.82 1.65 1.54 1.18 3.2 1.02 5.7 1.48 3.7.17 7.83 2.07 11.35a119.1 119.1 0 0 0 3.33 14.68c-.13 4.93 1.64 10.01 1.92 14.6-.12 3.6 1.39 8.37-.89 11.81 1.37 2.91-4.02 11.53.99 10.8 4.45 2.15 10.13 3.97 15.22 2.86 2.42-.29 4.95 1.4 7.17 1.26 3.96-.03 7.97 2.96 12.69 2.29 3.22 1.28 5.7-1.52 8.76.57 3.46-.48 7 .3 10.35.75 1.12.79 2.62 1.58 3.87.52zm-32.39-16.59c-1.43-2.48-3.62-4.27-2.17-6.71.42-3.44-.85-6.72-5.07-6.38-2.2-3.15 7.2-2.72 5.2-7.35.52-2.84 1.27-6.2-.33-8.85 1.2-3.15-1.94-5.09-2.09-8.19-3.05-2.61 1.6-6.38-3.25-8.54-2.91-3.08-6.75.29-9.07-3.93-5.49-1.67-5.26-8.03-4.56-12.8-.61-3.08 1.3-5.31 2.74-7.86.95-4.76 3.39-6.6 7.37-8.54 1.56-1.25 1.33-2.6 3.74-3 3.24-4.84-2.07-10.4-.1-14.44-2.53-3.1-1.62-7 2.59-6.48 4.97-2.5 7.5 3.95 8.72 7.93a8.44 8.44 0 0 0 4.55 7.16c-3.9 3.39.9 3.03 3.15 4.98 4.66 1.06 3.83 8.07 9.69 6.18 2.49 1.6-.54 4.67 2.4 6.03 3.29 2.77 5.87 7.79 2.24 11.33-.38 5-3.55-.74-6.08 1.8-.9-4.22 7.79-3.15 3.58-6.94-3.4 1.34-9.28-1.03-10.47-2.79-1.9-.08-6.48-5.07-6.21-.28-.27 2.3-.1 4.73.94 6.64-.79 2.76-2.81-4.62-2.3.47.45 2.13.07 5.93 1.4 1.99 3.43 1.01-1.67 8.66 3.63 5.4 3.92-.5 8.35-.67 11 2.23 2.85 4.89 7.16 9.52 8.65 15.05-1.82 2.58.33 5.7-.17 8.64-1.07 4-4.4 7.9-6.97 10.79-3.32 2.6-7.86 4.47-11.3 5.95-2.03 2.7-.86 6.32-3.72 8.76-1.31 1.93-5.54 2.65-7.73 1.75zm14.69-23c2.05-2.97 5.24-6.67 2.43-10.27-.51-3.99-5.71-5.52-6.12-9.7-6.5-4.7-4.94 5.44-1.53 7.74 2.25 3.64.5 8.29 1.73 12.23.72 1.05 2.52.28 3.49 0zm-17.82-31.12c2.01-3.47-.89-8.12-.57-12-.5-1.87.07-3.67.6-5.23-3.53-6.02-5.08 1.28-7.62 2.99-3.9-1.93-5.5 4.1-.78 1.6-.2 2.7.63 5.09-.18 7.85-.52 3.63 4.38 3.34 6.08 4.52.33 1.16 1.85 1.17 2.47.27zm-9.91 38.3c-2.33-1.68.02-4.82-3.77-3.99-3.87-1.24-1.79-5.78-4.24-5.04-4.19-4.65 1.1-6.28 3.6-6.9 1.56-.09 5.61-.8 6.5 1.46 3.18 3.9.04 6.33-2 9.05-1.87 2.12 3.7 5.42-.09 5.42zm97.77-3.21c-.9-3.94 4.9-4.09 6.36-6.22-2.67-4.9-.84-10.77-2.14-16.11-.11-3.72.52-10.36-1.19-12.47.14 2.32.01 4.53-1.04 6.67 2.5 3.04-.84 6.08.67 9.54-.38 2.16 2.92 11.12-1 9 1.27-3.63-4.04-5.66-2.05-8.76 2.53-2.31-3.12-5.02-.27-7.92 1.26-4.1.28-8.47.4-12.72-.36-2.77 3.1-.67 4.2-1.86 1.4-2.63-3.5-2.57-1.1-6.25-.88-4.11-2.89-8.91-3.41-12.7 2.67-3.48.04-6.79-2.98-8.82-3.43-.26-6.64 3.87-10.28 1.84-3.02-.29-4.99 2.77-8.31 1.71-3.6.68-6.13-.2-8.72-1.1-2.36-.2-6.48-1.94-7.33 2.08-2.83 6.1 6.23 5.34 7.92 9.64-.95 3.03 2.34 5.18.13 7.91-.05 3.23 4.32 6.96-1.01 9.2-3.06 3.07-2.89 6.82-2.51 10.84 1.85 1.74-.94 5.2 1.47 6.58 6 .05-.28 6.65 1.05 10.34 1.43 2.19-1.9 9.7 2.18 6.13 1.24-3.12 6.33-.66 2.93.54 3.85 2.44 7.43 1.23 11.32 1.98 4.98 2.03 9.27-3.06 13.33-3.07-.19 1.2-1.06 4.53 1.38 4zm276.37-16.14c2.71-2.02 1.81-5.78.8-8.35-1.17-1.93-3.75-7.16-3.5-1.69.32 3.34-1.82 7.61.7 10.4l.9.36 1.1-.72zm-93.19-56c2.1-2.63 8.34.78 8.25-3.43-3.7-2.68 2.9-3.42 1.53-6.78-.24-2.22.98-3.77-.26-5.9 2.1-.9 5.2-1.78 7.46-.37 4.94.6 3.9-6.27 2.52-8.88-2.18-3.85 2.07-9.67 5.62-12.08 5.23-3.27 9.26-7.39 14.84-10.1 2.37-1.93 6.57-4.43 7.93-5.74-5.93-.13 2.36-4.37 3.37-5.98 2.68-1.96 6.34-3.99 9.76-2.45 3.8-1.28 11.62-2.42 7.99-8.12-1.18-.33-4 6.48-6.92 3.75 1.4-2.65 3.49-6.74 7.17-5.68 1.78-2.77-.53-8.87-.2-12.83-2.08-5.5-.93-13.09-6.86-16.42-2.67-1.33-7.18 1.85-8.6-1.72-2.2.14-4.2 2.12-5.88-.52a58.14 58.14 0 0 0-9 8.2c-3.42 5.5-7.86 10.38-10.93 16.13-2.91 5.28-7.08 9.04-9.66 14.49-2.37 3.25-5.66 5.37-9.78 5.54-2.54-.57-6.12.62-1.4 1.2 3.83-.27 7.79-1.61 7.32 2.87 3.46.78 3.2-4.43 6.5-5.04 3.17-2.77 6.57-5.54 9.93-7.98 4.74-1.05 6.93-6.3 11.5-8.06 2.14-1.23 6.84-2.23 7.82.34 2.59.68 3.07 2.92 2.54 5.53-.46 4.16-5.58 6.08-7.79 9.27-1.67 2.91-5.52 1.13-6.13 4.78-2.06 3.19-5.13 6.59-8.27 8.57-5.06.74-7.27 6.96-12.06 8.5-2.62 1.1-4.88 3.2-7.68 3.96-1.69 2.4-5.1 2.14-6.98 4.45-5.49 2.5-10.83 5.27-15.67 8.79-2.68.78-4.6 2.56-6.22 4.7 2.39 5.18 6.77.29 10.31-.09 3.08-.05 6.25.05 9.71-1.03 3.52-1.18 6.24 3.34 4.06 6.18 2.28 4.47-5.59 5.22-8.58 4.6-3.28-2.23-10.34.8-7.43 4.78 3.61.93 5.95 4.98 10.17 2.58zm-137.7-1.25c6.1-1.43 3.48-9.08 5.35-13.52-1.16-2.2-10.54.82-7.14 4.35-.13 3.24-3.08 5.96-4.06 8.49 1.32 1.22 4.3 1.52 5.85.68zm88.45-16.67c.25-2.66 2.72-5.5 5.5-6.87 3.58-.45 7.31.23 10.19-2.48 3.43-1.7 8.02-.24 11.3-2.84 4.52-2.45 6.03-8.15 12.02-8.26 5.04-.62 10.64-5.06 12.64-8.99-2.27-1.32-4.36.66-6.6-.08-3.14-.27-11.98-1.9-4.71-4.27 2.5-.74 1.09-3.57 3.68-4.44.02-2.37-3.65.46-4.54 1.86-3.43 3.75-7.13 7.18-11.89 9.3-1.6 1.43-4.01-.03-5.66.73-.6 2 4.4.46 5.05 2.84.78 2.54-2.7 3.95-3.7 6.02-1.46 2.96-5.26 3.06-7.57 4.31-3.73-1.3-8.42-.72-11.74-2.3-3.23-1.7-8.34-.33-10.66 2.34-3.7 2.4-1.7 7.34-.41 10.5 2.1.97 4.71 3 7.1 2.63zm-115.82-1c.72-1.95-.95-5.43 1.52-6.31-2.54-1.42-3.51-2.65-3.96-5.9-3.69.2.29 5.8-.65 8.27 2.26.58.18 5.25 3.09 3.94zm33.4-6.13c2-4.6 1.8-10.35 4.87-14.7 3.8-3.86-3.95-7.44-6.48-9.78-2.81.64-1.73 5-4.57 6.43-.54 2.38-.15 4.53.51 6.76-1.1 2.45 3.3 7.95-2.04 4.75-1.15 1.78 2.52 3.46 1.52 4.74 1.86.72 4.22 3.53 6.2 1.8zm-26.52-13.08c.5-3.46 2.86-7.77 1.32-11.14-.52-2.23-3.4-1.76-2.36-3.94-2.01-2.07-5.44-7.17-5.98-1.24-3.6.53-2.02 3.79-1.97 6.82-3.43 6.34 5.6 5.71 7.92 9.99l.51-.03.56-.46zm120.9-4.73c3.33-.46 5.8-.54 4.24-3.95 2.54-2.48 3.47-7.28 5.64-9 5.11-1.14 3.2-4.92-1.04-4.96-3.42-1.56-4.65-6.26-4.97-9.6-.1-4.76-.81-9.78-2.17-14.45-.2-3.85.1-8.3-2.23-11.68 3.32-3.92-3.77-5.18-3.85-.89 1.25 3.67-5.81 3.55-3.9 7.84-.61 3.5.39 6.9-2.4 10.08-1.54 3.98-1.76 8.78-3.16 12.58-4.03 3.3-3.1 8.66-5.4 12.76.59 3.54-1.9 9.82 4.23 8.75 1.93 1 3.46-1.33 5.53-.68 3.17-.03 8.04-.81 8.46 3.52l1.02-.32zm-71.16-9.07c3.58-1.92 2.14-4.63.92-7.17 2.27-2.19-.08-6.14-.68-8.9 1.02-3.83-.27-7.29-4.85-7.79a16.46 16.46 0 0 1-.19-11.51c1.3 3.4 3.62 4.06 2.33-.07-1.15-6.77-8.42-5.65-13.5-8.49 2.22-3.54-5.92.8-5.7-4.12-4.95-1.1-6.9-4.35-4.58-8.69-2.51-2.86-5.56-6.1-8.2-9.07-2.74-1.62-.4 3.48-2.9 2.67-3.08.67.48 5.56.35 8.11-.5 2.03 2.37 2.77 1.59 4.95-1.84 4.66 4.58 6.38 2.9 10.2.69 3.1.42 6.2.58 9.44 2.12 1.7.87 4.72 2.04 6.85 4.8-.56 5.02 7 8.14 9.43 1.63 6.72 8.18 8.06 13.23 11.24 2.94 1.21 4.94 4.34 8.52 2.92zm-70.6-1.46c3.01-2.59 1.65-6.5 2.18-9.8.76-1.94 1.56-6.33-.63-5.99 1.5-4.28-2.82-5.71-2.51-9.42-.4-2.45-.66-5.6-3.64-6.03-3.67 2.02-3.57-3.2-6.27-1.83-3.51 2.62-10.79-4.64-10.57 1.67 3.38 4.2 7.6 8.17 10.1 12.88 2.25 2.1 2.46 4.66 5.86 6.6 2.4 3.36.42 7.48 3.53 10.58.4 1 .43 3.36 1.94 1.34zm18.14-19.26c3.35-2.2.04-7.28-1.02-7.55 4.34-6.29-2.42-10.61-6.6-13.85-5.74.25-1.65 7.08.3 9.74 2.8 2.3-.25 7.1 3.98 8.9 5.17-2.78.22 3.49 3.34 2.76zm-2.3-21.2c1.39-3.66-4.07-6.25-2.98-10.62-.92-1.47-1.73-3.84-3.17-5.03-1.97-.75-.22-4.5-.26-5.34 4.9.88 2.03-5.8.95-8.16 1.03-5.78-6.12-8.7-4.16-13.72-.87-4.45-2.81-8.76-3.55-13.15a23.55 23.55 0 0 0-5.97-11.2c.7-2.08.43-8.38-2.15-4-4.01 3.72 1.95 4.64-.14 9.32-1.38 4.12 3.4 9.53-.91 11.41 3.35 1.58.9 6.73 1.38 9.7 2.93.9-.8 4.66-1.72 5.46-2.79 1.39-3.37 1.66-4.33-.55-5.34-1.99-8.82 4.94-13.7 6.34-2.4.58-10.4 7.01-4.34 6 4.59-2.85 9.95-4.35 14.81-6.66 4.55-2.62 10.92-2.16 13.4 3.1.18 4.76-5.34 7.33-9.73 7.57-3.87 1.19-14.88 4.17-10.68 9.32 4.54 3.2 9.72 4.45 15.26 5.82 7.37.6 5.36-9.8 10-11.07 4.1.33-.92 4.28 3.08 4.78-.41 4.24 2.64 7.75 6.15 9.9.66 0 2.5 2.1 2.76.77z" display="inline"/><path id="path63" fill="#ffc901" fill-opacity=".68" stroke-width=".26" d="m142.07 216.65 18.95.96 1.73-22.41 9.3 3.16 2.65-3.61 3.43-4.74 3.48-1.22.92-10.88 12.71-11.14-13.05-17.36 15.46-10.1-8.3-42.2 2.1-14.81 6.28-1.42 2.17 3.28-1.45 5.27 15.03 9.18 25.58 4.11 26.38 53.55 20.67 25.37 32.08-37.1-.43-9.72 10.37 7.2-.14 12.3-5.33 7.64 4.2 33.1 21.13-2.78 19.51-13.7 3.6-4.52 1.57-14.73 32.64-24.91-.29-59.97-96.35-58.26-159.62-9.7L59.9 60.93l10.33 118.04Z" clip-path="url(#clipPath1)" transform="matrix(1.08 0 0 1.05 -20.24 -15.38)"/><path id="path16" fill="#232323" stroke-width="1.07" d="M346.73 501.13c-2.73-.16-6.44-1.12-1.42-1.1 6.46 1.92.61-5.67-1.68-3.07 2.35 4.92-9.9-.98-2.33-.65.27-3.78-6 1.97-8.56-.37-4.64 1.35-10.48-2.7-14.26-.06-3.95-.17-7.19-2.47-10.9.01-2.83-1.54-5.77-1.44-9.05-.95-3.4-.15-6.5-1.46-10.04-.19-1.16 1.15-6.17.47-4.88-1.8 3.07-3.72-4.52 2.07-6.16 2.88-1.97-1.08-6.63.68-6.83-2.3.05-3.54-2.79.66-3.29.28-2.48-2.5-4.83-1.62-7.74-1.33-2.79-2.14-6.78-.43-9.64-.9-1.34 3.39-6.39-1.44-9.42.81-2.77-1.37-6.92-.96-10.45-.52-1.86.94-8 2.98-4.03-.45 2.46-2.27-3.63.21-5.13-.95-1.32 3.51-6.37-2.38-5.3 1.04 2.77.9-5.2.05-6.42 1.4-2.61 1.4-3.74-1.67-6.13-1.4-3.99-.87-8.08-.01-11.22-2.08-2.96-.4-6.27.66-9.42.35-.84 2.66-5.5 2.55-6.7.54-3.6-1.14-6.05 1.24-9.91-.67-2.23 1.78-6.02-.16-9 .97-1.53-.74-2.16-2.19-2.17.36-4.6 1.06-8.9.97-12.87-1.15-3.94 1.99-7.18 5.12-12.33 4.23-4.3.73-1.35-6.47-5.93-3.47-3.47-.68 2.1 3.89 2.4 3.44-3.6.03-5.85 1.07-9.22.88-4.45.98-9.9.54-14.83.82-2.6 1.46-5.2.99-7.36.07-2.33.5-5.86-2.48-7.06-1.22-.77-2.56-7.15 3.68-9.38-.28-4.09.53-1.34-1.8-1.14-3.26-2.2 2.97-7.03 2.79-7.4-1.49-1.7 2.63-1.85 5.34-5.75 3.15-3.71-.66-8.35-3.37-3.83-6.36.01-3.44 5.33-7.34 1.16-9.47 1.59 4.06-3.75 4.43-2.85-.14-3.47-.6-.2 3.5-1.64 4.65-1.8-1.76-.62-4.86-3.47-4.76-.48-3.48 2.43-3.4 1.46-.32 5.38-1.68-4.4-6.59 2.46-9.05 2.47-5.12-2.73-3.53-3.22.25-1.5 1.55-1.02 8.78-2.33 2.87 1.23-3.84 3.08-8.42 5.73-10.25.67-3.32.12-10.65-3.43-5.48.15-2.72 3.63-4.72 6-7.08a26.66 26.66 0 0 0 2.09-8.3c-3.43-1.7-3.91 1.98-3.41 4.19-.95-2.04-5.84-.25-4.76-3.76 4.19 1.45 4.65-4.32-.25-3.51-2-1.17-3.33-6.88.32-6.84 2.7 2.36 5.42.38 8.11-.85 4.68.49 8.96-1.78 13.64-1.45 4.35 1.26 4.87-3.37.95-2.44-2.52-.47-8.95 1.26-9.67-.73 3.56-.86 7.45.03 10.83-1.37 2.79-2 5.53 1.71 8.47.67 3.78-.26 7.7-.15 11.1.57 3.54-.12 7.15.06 10.6.44 1.7-1.78 8.22 1.38 3.66 1.86-1.03.42 1.77 2.4 1.42 3.9 2.74-1.91.55-4.32 3.06-6.27 5.16-1.75 10.85-.03 16.21-1.02 2.43-1.32 8.2 2.92 2.25 1.46-3.86-.3-7.48 1.67-11.3.85-5.78.53 2.18 5.36 4.46 2.24 4.28-1.78 8.62 1.1 12.81.69 3.22-1.52 7.1.15 10.36-.87a49.8 49.8 0 0 1 13.55-1.02c6.28-.42 12.9-.54 18.68-3.13 1.38-.58 4.96.6 1.5-1.32-.36-3.92 8.59-.76 11.53-.65 2.93-1.7 7.62 3.12 8.92-1.88-2.74-1.34-5.1-5.19-2.62-8.32 2.66-3.18.64-5.89-.1-9.1-1.16-4.3-1.33-8.6.19-12.53 1.76-3.4-1.54-9.06-5.36-8.59-1.32-.24-3.8.6-4.78-.03.1-5.8-9.94.87-3.05.94 2.33-.33 9.53 1 8.38 2.27-3.72.71-7.4-2.5-11.77-1.57-1.95-.93-7.12 2.2-6.5.19 4.14-.36 5.8-1.48 2.4-3.23-2.63-.88-4.93 3.23-7.64-.42-2.45-.72-5.04 1.41-1.17 1.76.43 3.96-4.58.62-6.46 2.05-2.41 1.6-4.52-1.97-7.14 1.45-2.65 2.16-4.97-1.19-7.23-.05-.46 2.52-4.64 1.97-6.86 1.93-6.13-.06-12.22-.57-18.1-2.4-2.45 2.71-6.37-1.3-10.09.32-4.34-.2-8.7-.6-12.6.63-2.92-1.98-9.91.13-5.12 3.1 2.3.27 7.64 4.42 2.14 2.64-3.61 1.14-3.63-5.43-5.2-.93-3 2.28-6.93.1-6.42-2.75-2.52-2.32-8.32 3.21-8.73.32 4.92-.76.34-3.03-.6-.8-2.14 2-6.3 2.3-8.44 4.07-2.63.94-12.32-1.58-5.3-1.48 3.26-2.76-1.61-2.67-2.87-3.6-4.07 1.53 1.49 3.78-2.7 3.28-2.27 1.82-3.31.13-.87-1.07-.68-1.78-7.06 2.04-4.53-2.76.22-2.12-5.37-1.09-1.76-4.1 3.24-1.95 9.67-3.64 4.56-8.1-2.98-3.82-5.2-2.98-7.1.25-.66-1.51-1.66-2.26-3.66-1 1.87-3.95.56-3.35-1.8-4.74-.57-1.48-.66-3.08-2.1-4 5.05-2.49.38-7.86 2.18-11.96 2.09-1.85 2.48-3.45.2-5.67 2.81-4.56.46-9.4.46-14.25-.88-2.43 2.3-3.15 1.02-5.62.9-2.68-1.23-4.18-1.33-6.16-.34-1.8-5.08-3.45-2.22-.23-4.53 4.97-1.54-6.77-3.4-9 2.1-4.3-1.84-7.88-2.82-11.93-3.37-2.32-.5-9.1.4-12.8 2.2-.62-.18-3.59.7-5.64.1-3.37 3.7-4.9 2.67-8.68-2.56-1-4.17-8.81-.78-4.07 2.76-1.6-3.59-4.71.58-5.59.62-2.87-5.58-1.95-2.72-6.5-.94-2.48-5.59-2-5.68-5.49-3.13-.72-1.57-4.27-1.94-6.49-.59-2-1-4.47 1.15-1.26 4.97 3.22 2.92-6.69 4.4-7.57-3.5-.17-3.27 6.24-4.1.5-1-2.89 2.42-3.41 4.18-2.37 1.96.14-.07-3.19 3.47-1.67 3.13 3.86 4.16-3.29 8.46-2.13 3.3-3.42 5.76 5.38 7.28-.7 4.83-.96.1 3.74 2.13 4.68 5.3-.47 10.79-2.25 16.27-2.45 3.62 1.17 3.53-1.49 5.65-2.46.12 4.7 3.72-.2 5.4-.38 2.02 1.42-.04 4.94-2.69 3.92-2.35.83-4.13-1.54-5.77-.12-2.2 2.2-5.33.77-8.1 1.43-1.57.89-1.92 3.35-3.3 3.35 2.83 1.58 8.4-2.66 4.9 2.3-4.29-.28-4.58 2.58-2.37 5.24-.5 4.65-6.88-3.24-3.81 1.1 2.2 2.7 2.5 6.42 4.43 9.47 2.22 1.08 1.33 6.37-1.5 4.44-1.7-1.03 2.64-4.1.02-3.25-1.37 4.48-2.39-4.55-3.76.72-1.73 2.68 1.52 6.1-.53 9.16-3.13 1.82.42 2.5 1.76 1.26.6 3.08 1.34 4.02-.43 5.81-.02 3.34.75 6.52-.88 9.46-.46 2 5.8.32 2.98 4.45 1.62 5.5 1.2 11.4 3.45 16.8.86 5.28 2.47 10.4 2.58 15.73-2.82 2.65 1.18 3.04.64.49-.82 3.42 1.05 7.6.3 11.11-3.08-3.72-1.4 2.9.81 3.81-1.46 2.63-1.1 6.08-1.69 9.33-1.25 2.67-.88 7.67 2.55 8.55 4.9-.22 9.39 2.6 14.27 2.21 1.8-.94 4.16-.53 5.9.08-.54 2.95 2.87 3.25 3.46.62.53-.46 3.94 2.64 6.53 1.68 4.05 1.8 8.35.29 11.78.6 2.6 1.86 6.8-.17 9.86 1.31 2.7 1.86 5.77 1.41 8.13.62 4.03 2.16-6.52 1.96-.95 3.62a10.3 10.3 0 0 1 7.03-.8c2.57-2.6 8.13-.38 10.85-3.8 3-1.65 6.06-2.84 9.56-3.9 5.8-.57 11.53-1.67 17.39-1.38 4.66-1.32-.5 2.96 3.64 2.2 4.43.52 9.85 1.86 14.89 1.55 2.8-.38 6.25.6 8.56-1.3 2.35 3.03 6.9.22 9 4.75 1.55 1.67 3.99 2.12 6.25 2.24 3.98.6 4.45-4.82 5.25-7.48-.16-3.4 4.66-3.94 7.4-3.8 2.47.35 6.25.9 1.72 2.15.5 2.61 3.06 3.34 4.48 5.57-2.28 2.82 1.13 2.1 4 2.18 2.13-1.17 4.44-.5 6.66-.74 2.6 1.42-4.12.07.53 2.23 3.63-3.89 8.28-3.82 12.48-2.32 4.04-.77 3.33-6.7.07-6.47-2.24-.32-3.22 4.32-3.38.14 1.87-.63 6.5-3.93 9.25-3.66 1.4 1.74 3.65.84 5.4 1.34 4.16 2.34 9.43-3.3 13.45-.08.18 3.92-4.6-.68-7.05 1.6-4.63-1.26-9.72 2.8-3.65 4.9 3.1-1.86 5.27-.33 5.88 1.66 3.5.56 6.97-2.12 10.24-.55 2.77-.7 4.74-4.15 8.07-2.76 5.52.46 9.62-3.65 15.03-4.22-.81-2.96 3.42-2.22 5.12-2.14 3.02-2.26 6.13.48 8.7-.47-3.65-2.84 5.75-.47 7.2-1.77 6.25.34 11.97-2.54 18.16-2.17 2.12.5 3.94-.28 5.7-1.39 2.68-.75 4.87.36 5.2 1.96 2.23.24 5.42 1 4.38 3.97-.53 3.32 3.66 4.01 4.67 6.58.87 1.57-1.04 5.7-2.2 7.05-2.3-1.42-4.38-1.62-7.14-.78-4.55-.9-7.47 2.9-2.06 3.03 2.67-.1 5.62.47 8.13-.04 1.2-2.56 3.19-.1 5.15-.8 1.56.44 10.02.08 5.3-2.18-2.64-.73-7.14-.68-1.74-1.55 7.46.23 15.08 1.35 22.46-.43 4.62 1.72 4.62-4.64 8.48-3.66 4.2-1.73 5.72 1.74 8.86-.2 3.83-1.38-4.51-5.08.07-7.25 1.17-2.65 1.44 3.38 1.99-.76-2.08-4.44 4.1.13 4.05 2.32 4.3-.37 4.67-5.08 5.1-8.34 1.9-6.67 1.54 5.83 5.04.4-.24-4.96 7.2-4.69 9.45-1.46 4.95 1.1 6.7-1.62 5.74-5.82-.33-2.92-5.62-3.58-6.18-5.25-1.91.62-4.96-.82-5.8 2.26.1 2.7-4.62 3.27-5.9 4-.48-3.19 2.16-4.05 5.38-4.33 1.32-2.22 2.5-4.6-1.59-3.06-2.63.9-1.59-4.9-2.73-.33-2.71 1.42-1.7 4.8-1.9 7-2.33-.93-1.85-10.07-.7-13.76 2.36 1.99.94-3.58-1.38-1.02 1.1-3.75-2.85.86-1.1-3.51.25-3.04-1.75-5.45-3.31-7.93-.31-3.87.28-7.92-.84-11.6 2.42 2 5.08-4.54 8.41-4.81-1.29-3.1.76-3.56 2.5-.63-1.78 4.8 4.62 2.08 5.92 3.54.93 3.43 3.63 5.19 6.76 3.58 4.88.4 1.23-.3.22-1.72 1.47-4.14-5.58-5.54-3.15-9.05.82-2.9-.47-9.79-4.5-5.71-5.05-.58-.62 6.74-5.6 5.4-3.84 2.61 1.16-5.43 3.08-6.05.91-.82-2.74-2.01-3.04-3.3-4.15-1.07 1.58-7.66-3.4-8.67-1.94 2.69-4.8-.21-3.13-2.43-3.09-1.08-1.35-11.03-3.48-8.7-2.17 1.6 1.66 8.57-1.77 6.77-1.01-3.53-1.02-11.58 2.88-9.67 1.8-1.69 1.2-4.67-.8-3.4-2.34-2.16 4.05-3.64.32-5.82 1.4-2.35 2.61-7.73-1.62-7.13-2.04.16-.93-3.6-2.86-4.43 2.42-1.16 2.32-4.55.04-5.55 3.04-1.71 6.72-2.31 9.07-5.02 5.87-1.06 11.74 5.52 8.45 11.3-.24 4.04 4.18 3.77 5.87 1.25.14-3.32-.77-7.03 2.9-9.23 2.13-.05 7.86.08 5.7 2.75-4 .65.1 3.58.71 4.13-1.82 2.7-.08 4.8 1.76 1.3 2.18 6.16-5.73 8.71-7.17 13.96-4.5 1.67-1.47 6.37.8 7.84-2.9 2.85.32 7.87 2.37 10.36-.21 3.77 2.62 6.85 4.17 10.26 2.3 2.85-.09 5.4-2.88 4.95-5.5 2.76 1.55 5.26.96 8.96 3.14 2.37-1.1 5.54.4 8.58-.67 2.56.6 6.73 0 8.15-.38 2.64 2.12 3.23 1.28 5.77 1.3 2.92.34 6.3.8 9.63-.19 3.02-4.23 5.47-.78 7.9-4.04 1.12-5.43 5.6-2.31 8.07-1.06 3.43 3.18 2.41 1.02 5.76 3.04 7.85-9.4 4.12-12.08 9.03-.9 3.84 9.06-3.55 4.54 2.15-3.56 1.92 4.24 4.26-.47 4.71-5.38 1.07 2.21-3.6-3.01-1.98-4.2-4.66-3.06 4.27-7.46 4.04-2.43 2.13-6.9 1.78-9.46.36.53 2.75.86 5.71-2.8 2.88-1.25-4.51-2.3 1.12-4.86.78-1.71 2.5-5.69 3.25-8.79 5.06-1.98 1.74.78-2.24-2.7-.5-2.3 2.19-5.13 4.4-8.69 3.8-2.68-1.01-3-.88-3.43.98-5.19 2.47-3.48-.51-1.63-2.13-3.27-.9-3.84 3.2-7.24 1.3-2.72 1.89-5.83 1.57-8.9.95-.74 2.68-3.47.74-5.48.71-3.18 4.34-8.3-4.5-11.9-1.54-3.84 1.69-10.27.06-15.03.47-3.56.67-7.18-2.09-11.16-1.03-4.4.46-7.56 1.63-11.6 1.15a7.24 7.24 0 0 0-4.06 4.53c-4.15 1.02-8.79-.25-12.65-1.04 1.95-1.55 5.26-.4 7.6-.31 1.88 1.68 7.26-.46 2.05-1.52-.99-3.72-5.04 2.42-7.75-.54-2.64.63-5.44 1.28-4.47-2.27-3.46 2.66-7.37-.04-10.44 3.71-4.15 2.09-10.59-2.92-13.12 1-4.07.4-4.8 4.46-5.12 7.82 1.29 2.93-.76 5.8-.74 8.75.16 2.32-.36 4.76.8 6.9.92 2.67.95 4.8-1.37 4.49-1.98 4.28 2.62 3.21 2.21 6.12-.08 2.24.42 4.18 2.1 5.79.43 3.53-.72 6.85 4.3 5.57 4.27-.91-.24-4.88 4.56-3.45-.93 4.58 2.76 3.56 5.87 3.64 3.98.58 8.1-.4 11.96.18 2.84 3.96 7.1.92 11.14 1 4.63 1.59 8.67.28 13.01 1.77-.38 1.2-2.6 2.23.9 1.36 1.73-2.8 4.15-2.97 6.66-.4 4.42 4.54-4.48 3.39-6.91 3.35-5.39 2.94 3.74 3.81 6.3 3.75 3.53-.93 6.96-3.04 4.68-6.35.67-3.1 5.52 2.86 8.5 1.41 3.25.92 7.62 2.52 9.7-1.24.74-3.37-4.44-2.79-6.55-2.63-2.92-1.42-5.66.33-8-1.8-3-.3-5.61-1.8-8.68-.9-5.45-.63-10.94-1.25-16.44-1.95-5.98.51-12.07-.72-17.94-1.27-3.9.56-9.33.71-12.65-.42 8.58-1.6 17.3-.2 25.96-.37 6.24 1.36 11.97-1.16 17.73 1.6 5.4-.8 10.57 1.98 16.23.95 4.85 1.17-5.66-.32-1.9 2.55 3.91-2.05 8.11-1.72 12.38-.9 6.46.16 11.73 4.3 18.27 4a53.3 53.3 0 0 0 19.05.82c3.77 1.6 7.14-.48 10.88-.27 3.83-.4 7.69 1.93 11.35 1.3 6.32-.27 12.79.4 19.06 1.57 2.5-.43 3.12-6.2 6.68-5.56 4.85.19 10.77 2.83 10.4 8.05-3.48 1.24 3.1 7.07-1.49 7.79-.38-2.78-1.08-5.05-1.06-7.72-1.99-.27-.13 4.1-3.61 1.54-2.24-2.02-8.1-3.23-8.96.48 4.47.43 6.18 3.62 4.17 7.69 3.28 5.96 5.33-4.68 3.82-6.86 1.4 1.43 4.13 2.7 3.15 5.13-1.94 2.54-1.55 4.03.68 4.7 1.8 3.77-3.82 2.68-.55 5.87-.74 5.59 4.58-3.88 3.73 2.08 2.38 5.05-2.25 12.24 2.93 15.77 2.94 2.5 3.9 5.7 3.13 9.53-.95 3.4-9.45-.7-5.66 3.2-3.99.73-9.29-.16-13.6.95-2.75 1.67 2.56 5.27-2.73 3.46-4.59-.4-4.9-3.04-7.94 1.45-3.7 1.4-7.44.46-11.21 2.58.28-.94-.02-3.83-2.14-1.77-.8 3.67-5.1.67-5.84 3.99-1.02 2.51-8.73 2.14-3.62 0 4.83-1.16 1-3.54-1.16-1.15-3.95-1.03-8.12.94-11.41-.35-4.69-.61 1.2 3.11-3.32 3.03-4.19.87-6.82-1.92-10.66-2.76-4.05-.65-7.45-2.24-11.54-.94-2.19-.14-4.05-.2-5.86 1.21-3.8-2.08-6.94-1.28-10.88-.21-3.65-2.04-7.9 1.7-3.29 3.76 2.56.82-3.8 2.84-4.53 1.93zM79.45 481.37c3.57-1.78 6.18-3 10.4-2.03 2.23-.53 7.08-2 7.29-3.26-3.13.1-5.62.12-8.83.1-2.89-.38-5.7.02-8.14 1.57-2.33 1.36-10.5 3.95-6.68-.89 2.26-4.33 8.98-5.7 11.3-9.52-4.96-2.66 3.19-3.97 5.44-5.05 3.39-.65 6.18.85 8.86-.22 2.9-4.51-4.74-3.06-7.27-2.62-4.77 1.1-9.6 2.67-14.3.89-3.01.28-5.42 4.2-2.7 5.28-3.78.8 2.82 11.32-2.29 6.36-4.4-.65-7.55 9.5-1.27 8.7 2.9-.42 5.49 2.22 8.19.69zm332.6-.5c2.34-.34 8.13.11 4.53-2.32 2.09-1.42 5.7-5.69 4.03.01-1.4 3.38 3.71 3.15 3.4-.08 1.86-1.14 8.85-3.25 3.47-4.76-2.17-1.03-5.51-.05-6.47.38-4.62-3.38-11.5 1.88-16.18 1.45-1.67 1.33-10.6 3.24-4.68 4.85 3.2-2.5 6.2-2.98 8.9.75 1-.17 2-.31 3-.27zM275.8 468.26c1.33-.54 6.18-.5 3.16-2.87-2.92.39-4.93-.23-7.74-.4-6.31.36 1.11 5.1 3.98 3.98l.6-.71zm-136.57-7.28c2.6-1.16 5.77.52 8.1-1.54 1.79-2.9 5.13-.71 6.69-3.26 2.76-3.58-4.57.82-3.09-4-1.4-3.13-4.67-2.1-2.13.52.8 3.04-.46 4.67-3.78 4.62-2 3.27-1.72-4.5-5.59-1.65-2.69 2.52-4.58-2.21-4.06-3.8-3.11 1.87.99 6.43.07 9.4 1.2.56 2.62.07 3.8-.29zm285.95-1.89c4.53 1.52 8.83-6.27 1.93-3.4-2.7 1.42-6 .2-8.75.97-2.94 3.31 5.38 2.4 6.82 2.43zm-359.3-14.96c2.73-.9 11.42-1.98 5.34-5.45-3.55.76-7.22-5.76-7.66 1.15 0 1.7-.92 6.07 2.32 4.3zm261.43-9.78c1.87-2.44-3.1-4.95-4.95-3.41-2.78 2.07-6.82.83-9.85-.07-2.96 1.2-6.85-1.44-9.72 1.16-2.58 4.06 3.13.34 5.04 1.85 3.14-.1 6 .54 9.15-.53 3.46 1.52 7.02 1 9.5-.16 1.19.28-.96 2.67.83 1.16zm-45.79-.4c2.69-1.87 4.67-.12 7.26.08 2.03.07 6.6.38 4.85-2.88-1.3-1.77-5.08-.76-6.77-1.26-1.46 4-3.92-.2-6.81.68-3.16-.74-7.12 3.55-1.64 3.38 1 .55 2.1.17 3.11 0zm-75.46-30.51c5.29 2.12 2.5-7.8 7.46-6.94 2.8-.36 5.58 1.84 3.54 4.04-5.36 1.41 1.28 2.31 1.95-.35 2.26 1.35-.22-5.23-1.32-4.04 4.1-2.73.75-6.2-2.44-2.14-1.86 2.46-6.58.12-8.84 2.93-2.14-.85-3.6.81-3.56 2.71 1.07 2.33 7.31-1.48 2.73 1.89-1.91-.16-.96 2.9.48 1.9zm38.37-36.66c2.76-.23 9.95-3.14 3.63-4.35-2.62-.76-11.8-2.35-10.24 2.2.76 2.51 4.45 2.68 6.61 2.15zm201.08-17.01c2.06-1.61 6.38-4.25 1.74-6.85-2.85.99-6.72 3.32-6.16 6.73.29 1.65 3.07 1.36 4.06.78l.36-.66zM51.57 329.9c1.3-3.3 5.95-4.57 7.8-1.77 3.1 0 8.35-5.53 2.65-3.88-2.1-1.51-4-2.15-4.3-4.58-4.06-.9-1.6 5.6-3.54 5.83-3.93-4.72-6.47 7.76-2.6 4.4zm403.2-4.65c1.28-2.42-3.11-5.15-.13-7.98.02-4.03-3.91 3.35-5.4 4.14-.49 2.82 2.84 6.2 5.53 3.84zm-293.3 97.25c-6.68-.73 2.12-1.53 4.51-1.37 2.79-1.12 6.01-1.39 9.18-1.25 2.36.7 4.74 1.17 7.22.7 2.56 1.73-4.75 2.34-6.65 1.23-4.77-.07-9.52.92-14.25.7zM42.69 364.72c-3.58-1-.92-6.15-1.9-9 .55-5.5 1-11.02 1.33-16.56 2.43-7.53 2.23 3.48 1.71 6.02 1.12 4.1-.5 7.7-1.08 11.59-.2 2.05-.9 4.2.76 5.87-1.72.6 2.6 4.52-.82 2.08zm409.58-3.65c3.25-2.75 4.76-6.08 6.46-9.91-.13-3.37-.58-5.48 3.38-7.04 2.6-4.37 2.2 3.2-.93 3.26-2.2 2.96 4.32 5.01-1.52 6.64-2.38 2.23-3.34 7.34-7.4 7.05zm-349.96-21c-4.82-.43 2.87-.98 2.28-4.25 3.33-2.1-1.4-1.65-2.77-1.06 4.59-2.18-.43-8.16 3.4-10.4 1.77-2.58.75-8.86-2.1-3.35-.12 4.45-3.58 6.68-3.78 11.47-.03-1.78-4.77-7.52 0-6.2 1.01-5.53.41-11.22.96-16.73.15 3.5 2.02 5.54 4.05 2.01-1.2-4.04 6.18-.41 4.05-4.56-3.14-5.94 4.25 1.35 2.14 4.27-.23 4.37.04 10.27 5.66 9.55.09 2.41-3.6 2.82-4.6 3.7-3.76-5.96-3.22 6.9-.4 4.83-.6 3.12-5.88 5.51-5.12 8.2 2.58-.18 4.18-7.7 3.9-2-3.18 1.78-2.65 6.34-7.67 4.52zm44.79-2.62c-1.13-2 .73-4.72-.75-5.67 1.13-2.65 4.47-6.64 1.45-9.58-1.68.93-.02 9.42-2.73 4.28-.25-4.48-3.05-6.6-.86-10.79-1.7-1.96-1.62-4.13-1.15-6.16-4.31 2.38 2.23-3.6.38-5.72-1.44-3.25 1.25-8.46-2.78-8.34.45-3.51-4.3-.48-3.17-5.03-.48-2.41-.52-10.27 1.36-3.72-.07 5.46 7.72-.98 2.82-1.24.74-3.18.3-6.84 1.26-9.86 4.78-3.65-.93-6.17-1.66-1.2.46 4.55-3.78-2.4-5.36-3-1.13-2.05-1.83-11.65.72-5.32 4.9 1.77-1.72-5.39.3-7.9.2-2.1-4.06-1.65-1.17-3.8-.4-2.78-2.76-7.02 2.21-4.91 1.9-2.25 2.8-9.15 7.3-6.3 2.8-.22 3.36-3.58 3.34.33-2.6.25-7.18.55-6.95 4.27-1.66 6.08 5.45-1.99 4.09 2.05-.45 2.02.08 3.71-3.2 2.71-3.1 3 4.75 5.17.7 5.7.4 5.3 8.3 4.93 10.21 9.1-1.76 1.13-2.95-2.22-4.5-.4-2.4-6.23-5.97 1.41-2.86 4.08 2.2 3.22 1.35 13.17 5.85 12.08 1.83-.86 2.8-7.18 3.08-1.82-.67 2.54-4.24 3.77-3.41 6.72-3.58 2 1.09 6.44-1.48 8.86-3.23 2.79 1.75 4.6-1.42 7.8 3.3.47-.77 5.68 3.32 2.96 2.32-2.87 1.17 6.13 2.1 7.68-.7 3-2.76 10.14 1.97 6.48 3.26-2.83 8.4-.4 10.46 1.22 1.27-4.94 3.93 1.01 6.58.43-3.54 1.56-7.08 4.36-9.97 7.47 1.6 2.54-2.3 1.67-1.68.06-2.87-.2-4.47 2.83-6.34 4.31-1.7-3.57-4.48.7-6.58.74 1.38 1.23-.25 2.57-1.48 1.43zm22.23-4.85c-.58-1.67 3.74-2.03 2.3-4.12 2.7-2.4 5.97-.38 8.07-.92-.47-4.06 3.73-.09 1.29.84-1.27 3.48-5.58 1.15-8.26 3.01a2.76 2.76 0 0 1-3.4 1.2zm12.71-.72c-3.75-1.37 8.51-.93 4.92-5.54-3.04 1.82-5.98-3.87-.72-3.04 4.2-.82 5.52 5.78 1.77 7.58-1.23.69-4.5 1.99-5.97 1zm281.2-.11c-5.57 1.51-2-4.8 1.55-4.85-.44-1.5-4.88-.85-3.92-3.87 1.3-3.1 8.3-.68 5-6.04-.4-3.01 3.33-3.08 1.5-.02 2.16 3.55-2.91 7.57-1.48 10.8 1.5 1.22-1.3 4.79-2.65 3.98zm-265.16-.63c-.83-1.35-4.04-1.23-3.13-2.8 5.4 1.23 1.17-5.98 1-8.4-.13-1.63 1.29-6.97-2.14-6.3-2.14 4.27-2.54-3.55-2.9-5.42.64-2.46.75-4.9.14-7.43-.4-3.63.48-6.98.22-10.63.06-4.74 2.83-2.55 1.4.82-.71 4.2 2.18 3.82 2.25.04 2-3.04-1.83-4.32.49-6.99-3.03-3.83 5.2-2.4 4.47-6.91 1.73-2.54-3.4-2.29-2.23-5.08 4.44-6.29 1.58 4.13 4.97 5.85 2.24 4.94-4.45 1.63-4.18 6.3-1.26 1.84-.38 4.37-.77 6.5 4.48 3.15 2.14-8.38 6.15-3.66.86 1.58-3.4 3.91.14 5.5 1.9 3.86-2.3 6.94-3.3 10.42-2.55 1.44.3 3.8 1.82 3.16.08 1.87-1.54 4.14.43 5.92 2.36.45 3.94 4.26 3.85 6.5-.24 2.27 4.19.95 2.6 4.48.88 2.42-7.03 3.08-9.02 5.38-3.53 4.15 6.47-.48 1.02 2.68-1.07.23-2.2.26-3.28.07zm-80.69-6.08c1.73-2.67 3.97-5.18 6.57-5.13.1-4.04-12.17 3.6-6.57-3.23 3.77-3.49 1.37-8.32 1.34-11.82 1.36 3.48 3.9-.7 6.01 1.63 1.74 2.96 4.8.14 4.81 4.9 2.52 3.3-5.7 7.36-2.5 3.21 1.1-2.41-1.01-7.2-4.38-7.71-4.86 1.87.08 4.93.97 4.77-3.42-.1-5.03 6.5-1.16 2.55 2.9-.06 1.77 4.3 2.93 6.08-2.75 1.74-4.69 5.9-8.02 4.75zm-16.43-22.15c.18-2.7.3-6.7.35-9.68 1.68-3.87 4.69-2.8 5.56.56 3.82 1.2-1.85 6.69-3.65 4.73-1.64.73-.95 3.68-2.26 4.4zm-4.63-4.2c-2.3-2.84-2.88-5.17-3.64-8.33 3.57-2.56 12.5-.5 6.42 4.41-1.1 1.2-3.86-.9-1.55 2.19.72.6-.45 3.45-1.23 1.73zm28.12-.96c-1.99.29-5.02-1.15-7.67-.87-3.5 1.25-8.7-.86-3.1-2.64 2.88-.16 6.2.57 8.8-.09 1.61-3.1 4.93 5.93 1.97 3.6zm68.77-24.42c.12-.42 3-4.84.27-4.98-3.55-1.31 1.43-5.29-2.53-7.43-2.11 1.2-5.26 3.62-3.3-.92 3.59.6 1.02-4.26-.08-5.84-3.77.8-.88-4.12-2.6-5.75-1.66-2.85-7.95-3.88-2.51-5.77.48-2.58 3.52-3.91 2.5-6.9-.24-1.87.61-4.02-.74-5.58-1.26-2.65-3.22-7.39-.1-4.64 1.85.72.95 5.43 3.26 6.14 3.63 3.54-2.7 7.8-1.54 9.93 4.57-1.68 2.5-7.43 3.4-10.8.37-4.22 4.41-4.8 3.35-.39.43 3.16.3 5.73 2.37 7.83.09 2.85-.04 6.43 2.89 6.93.02 3.27-2.68 7.97.68 10.16-1.46 2.46 3.64 7.9-.4 8.02 1.1-2.15-5.68-7.25-4.35-1.3.18 2.82 5.29-.4 3.8 3.13-.71 2.73-1.07 7.57-4.37 8.16zm33.24-12.8c-.7-2.56-5.88.27-2.5-2.02 4.25-.01 4.97-4.84.6-4.82 2.06.36 8.86-2.76 3.58-3.1-4-2.18 8.4-.23 2.06 2.58-2.3 2.12 1.59 8.43-3.74 7.35zm-122.67-4.05c-2.54-1.2-3.78-2.82-6.87-2.53.03-2.17-3.91-3.62.1-4.7 1.94-.23 1.57-5.32 4.15-5.16 2.28.73 3.56 5.27 2 7.16-4.27-1.15-2.73-.54-1.75 2.49 2.34-.12 1.8 3.58 3.54.56.9 1.52.92 2.94-1.17 2.18zm102.64-.6c1.3-3.79-5.1.25-2.72-3.98-1.47-.56-7.97-2.74-4.23-3.3 3.46 2.22 5.85-2.42 2.04-3.69 2.55-.06 5.63 1.38 7.27-.5-.59 3.65-5.19 10.55 1.6 7.86-.16.89-2.7 4.05-3.96 3.61zm193.36-9.4c-.24-.78-2.43-5.2-4.44-2.1-1.14 2.1-7.7 1.77-3.11-1.17 1.77-1.58-3-4.27 1.1-4.7 1.8-3.28 5-1.42 7.46-2.72 1.56-.75 5.13-.82 4.81 1.54-2.86.49 4.76 1.18 2.98 4.37-.6 3.9-5.38 5.1-8.8 4.77zm-185.2-4.87c-1.74-1.11-2.54-.7-3.3-2.9 1.9-3.47 5.37-10.78-.83-12.17-.02-1.29 4.06-2.9.76-4.9-4.04-.18-2.85.43-1.73 2.66-1.6.08-6.24-2.15-5.41-4.45-2.29-.75-.07-4.98.52-.69 4.34 2.96 5.62-4.07 1.1-3.22-3.22 1.86.78-5.17-3.39-1.55-2.37 1.18-6.92.34-4.3 4.62-.08 3.17-3.2 2.25-1.94-1.15-1.43-3.3-5.15-.46-5.04-4.7-.83 1.27-8.05 2.76-4.26-.74 1.71-4.63-8.13 2-3.42-1.91 1.6-1.11 5.07-8.46 2.52-7.49-2.16 1.71-5.52 6.3-6.75 6.17-.12-3.6 4.85-4.83 4.13-8.6-.58-1.84 2.98-9.28-.53-5.28-4.1.8-1.18 4.5-4.17 5.65-1.27-2.02-6.6-5.63-1.15-5.53 6.77-.7-1.24-7.88-3.12-4.1-2.9-.3 1.34 5.75-1.65 2.08-3.62-2.38-2.45-5.27-1.92-8.15-2.66-.95-8.06 1-3.3-2.24-3.13 1.88-2.48-3.44-4.45-4.6-1.47-2.28-4.4-1.15-5.11-1.43-.33-2.56-2.53-6.01-4.82-8.17-3.96 2.88.69-3.04-3.99-3.2-2.51-2.75-5.68-.84-7.77-4.7-2.37.17-1.75 6.33-6.13 3.6-5.44 1.42-5.65 9.35-.84 10.84.04 3.5-.25 5.93-3.75 7.27-4.36 1.37-1.07 7.08-2.86 9.78 3.85 1.72-1.05 5.95-3.37 3.38-.18-3.16-2.06-6.12-4.95-1.81-4.1-1.58.95-4.95-2.21-6.8 2.36-2.95-.78-9.03 3.71-8.97 1.16-2.63-1.73-13.03 3.58-7.82 4.16 1.77 6.65-6.08 6.95-8.98-2.27.27-5.96-.69-6.7-.3.63 1.8-3.66 2.44-3.98 5.37-1.14 3.93-6.26 6.25-6.96.75-.2-1.63.5-5.67-2.12-3.03-1.7-1.92-1.09-6.7-4.23-2.2-2.31 2.5-.93-2.41 1.07-2.4 2.92-1.88.4-6.41 5.19-6.32 2.58-1.82 1.1-5.58.64-6.46 3.21-.95 6.86.44 4.89-4.38.37-2.31-4.24-.98-1.53-3.8-2.84-.34-2.51-1.83-2.4-4.09-2.65.9-5.24 2.99-2.95 4.37-4.7 2.14-2.8-6.55-6.94-3.11-1.19-1.58 1.5-7.63 3.8-9.61 2.01.23 3.84 1.37 5.5-.04 1.99 1.92 3.66 4.63 6.71 3.78 4.68 2.3 3.13-6.26 6.26-6.53.37-1.6-3.37-5.04-3.95-1.76 0-2.73.29-5.32-1.38-7.57.54-2.59-4.36 0-1.22-2.74-2.09-2.21-3.65-4.82-3.4-8.14 1.4.87 3.59.37 4.1-2.34 1.12-.6 2.8 2.21 4.39 1.64.4 3.09.5 7.36 4.55 5.92-.04 4.42 3.65-.78 2.9 4.53.03 4.32.39 6.08 2.64 8.73 1.47 2.37-1.04 5.02 3.65 4.02 5.73 5.52 3.17-6.34 6.08-7.52 2.1 3.42-2.08 6.06-.57 9.46-.77 2.9.78 4.26 2.28 6.41 1.97 1.6 5.64-2.78 4.14 1.65-.37 2.3-2.82 4.17-5.33 3.05 1.74.68 1.78 4.4 4.75 3.83 2.6.27 4.54 4.12 7.48 4.14 3.2-.98 6.2-.2 9.44-.01 3.08.6 3 3.66 2 5.82 2.7 3.07-2.8 2.84-2.21 6.26-2.68-2.13-4.22 2.44-1.16 4.02.66 3.83 4.74 5.92 4.97 9.57 1.7-.13 3.48 3.37 3.67 4.6 1.43 2.29 3.14 8.1-1.3 9.77 3.07 2.66 6.88-7.51 10.05-.94-1.42 1.6-4.53.2-2.77 4.02.03 3.51 3.6-.54 4.45 3.4.27 3.15 2.55 7.18 5.42 2.97 2.56.8 1 5.99 5.51 5.47.72-.98.74-7.66 3.07-4.22.76 2.84.95 5.5.2 8.36-1.8 5.48 3.28 1.29 5.43 3.88 2.18 3.29 7.44 4.92 6.64-.74 1.06-3.6 1.64-7.16-.4-10.56-1.02-3.5-5.01-4.56-5.13-8.39a4.34 4.34 0 0 1-6.09-.28c-3.06-.62-2.66-4.56-4.24-6.08-3.27 1.57-1.74 5.46-.03 4.86-1.09 3.36-6.8 1.21-3.35-2.3 3.98-2.82-.65-6.52-.08-8.72 1.23 5.63 1.57-7.55 5.12-3.43-3.28 2.54 4.69 3.38-.44 3.29-4.08.57-.96 2.75-.44 4.46 4.23 5.41 4.65-2.66 3.1-4.58.01-2.7-2.8-7.21-1.84-8.3-3.15 1.47-4.04 7.56-7.05 4.14-2.6 3.7-2.69-5.73-2.29-7.49-.5-2.8-5.16-4.76-2.31-8.34.3-2.5-5.2-3.29-.73-5.4 2.35-2.71 6.57-4.78 5.67-8.94 1.88-4.9 3.23 2.53.78 4.29.8 2.25-4.8 5.2-.13 2.6-.23 2.65 3.24 4.05 5.55 4.14-3 1.07-4.71 8.44-.72 7.33 2.45 1.87-1.77 9.81 1.87 4.54 2.34 4.07 3.38 11.33 9.17 12.94 2.93-1.1 1.42-7.15 5.33-5.71-.06-3.4-6.03-4.3-4.68-8.41 1.32-4.15-5.02-6.14-1.64-9.93 0-2.9-3.32-6.71 1.02-5 4.2-3-2.64-4.2-3.8-1.54-1.85-1.76 3.22-4.83-1.08-5.12-1.18-1.51-6.57-8.3-1.8-6.98 1.5-2.75 2.02-6.98 1.83-9.95-3.01-.99-.67-3.96-2.91-5-.22-3.15 3.1-7.27-.99-8.77 2.55-1.76 1.14-9.06-.69-3.57-2.93 4.9 0-2.7-1.27-4.56-2.3-2.94-.78-6.54-2.9-9.54-.88-4.91-3.13-7.7-.65-12.68-1.17-2.33-3-2.9-3.37.6-1.36.13-6.29-.04-4.18-2.52 2.67 1.41 4.05-2.35 4.07-4.62 2.93.36 5.18-4.8 1.1-2.56-2.08 1.54-5.47.51-3.52 3.77-4.22 3.85-3.5-3.4-6.36-3.72-6.05-.26-8.38 6.24-6 10.3-1.83 1.49-3.46 7.28-4.53 1.85 1.39-4.26-5.1-6.36-3.52-10.24 4.35 4.12 3.75-5.52 8.44-4.43 2.15-.78-5.09-4.12-3.95-.28-3.35.54-5.6 1.88-7.3 3.67-3.3-.78-3.04-1.09-2.48 1.41-4.86 4.51-1.74-4-5.3-4.13-3.02-3.25 2.85-3.67 1.9-8-1.12-2.37-5.04-3.13-6.52.43.79 3.8.58 6.72-3.78 8.65-2.25 1.51-2.98 7.02-5.54 6.55 1.23-3 3.76-5.82 5.24-7.67 1.36-2.6-.1-4.5.1-5.94 2.74-2.02-1.73-4.2-2.54-1.17-2.69 1.5-4.32-.65-6.52-1.07-3.22-.86-3.84 5.99-5.63 2.13-2.52 2.4-6.26-2.9-2.78-4.78-2.09-3 5.58-.6 1.31-3.01-2.99-.01-6.48-1.29-8.58 1.27-.06-2.1.32-5.27 3.37-4.84 3.78-.7 11.37-3.6 13.04-2.96-1.57 1.47 5.69.54 1.75-1.54 2.2-.88 4.23-1.66 5.88-3.39 4.5 1.47 5.2-3.5 7.4-4.53 2.52-3.2-5.43-.7-5.23-2.92 1-1.93 6.3-1.48 2.88-3.9-1.4 4.25-5.84-.25-8.07-.9 2.89-.73 7.42 1.34 5.36-3.76-1.84-2.18 4.1-4.19.2-5.45-1.32 3.21-4.12-.5-5.8 1.49 1.03-2.23.7-4.8.48-7.1-.27-3.9-2.21 3.78-4.08-.42-3.04-2.08.36-6.3-3.28-6.24-.41-2.82 0-5.78-3.8-4.12-1.36-2.17 1.28-4 2.84-4.94 5.12.27-2.9 2.43 2.2 2.42-2.95 3.75 4.89-2.01 3.6 3.33 1.81 1.83 4.62-2.92 5.5 1.99 1.85 4.3 5.82 7.76 8.88 11.63 1.45 2.55 6.93 5.36 2.73 9.1-6.46-.81-.3 9.79 1.73 2.59 4.3-.15 4.56-6.4 4.7-9.65.06-4.37 2.52-8.53 2.66-12.76-.37-3 2.35-2.34 1.75-5.78 2.13-3.3 5.63.41 7.22-2.71 7.18.03.34 9.47 4.69 10.93 2.99-.6.95-5.97 4.6-4.79 5.37.89 1.72 6.4.6 9.11-1.13 2.72-4.91 2.4-5.33-.64-2.5-4.35-8.54 1.37-10.17-4.1 2.6-2.2-1.7-5.01-.92-.84-.36.77-4.52 7.7-.45 5.36.96-1.66.9 2.2 2.5-.59.87 4.79 3.06.33 5.04 1.03 2.27 2.76 1.14 8.9-1.23 9.74-4.1-2.59-2.4 4.58-4.15 6.21-6.03 4.03 8.15 4.8 6.83-.92 1.17-2.9 5.18.93 5.05-3.46.84-5.02 5.94-7.1 10.2-8.5 3.35-2.67 9.8.04 8.45 4.97 2.44 2.56-1.1 5.26-1.8 1.88-3.13 3-3.66-4.7-5 .58 3.73 0-1.7 5 2.63 4 1.84-2.62 4.22-3.37 3.05.75.98 1.65-4.45 4-1 3.6 3-.72 8.95-4.14 10.93-1.49-2.39.08-7.94 2.07-2.49 2.97 4 1.72 1.44-4.25 5.5-1.58 1.85 5.7-2.73 8.22-7.5 8.63-3.52 1.65-7.61 3.28-11.9 3.25-1.66-1.72-6.24-1.74-7.07 1.23-4.52 1.86-4.74 6.65-.87 6.33-4.17 2.63 2.76 4.23 4.37 5.44 1.87.82 1.79-3.71 5.25-2.4 1.47 3.2 9.8.7 5.66 6.27.2 1.52 5.87.35 2.87 3.28-2.45 1.2-7.34.24-7.6 4.15.4 2.3-5.36 6.9.41 4.69 2.07.59 1.88 6.02 3.27 8.18-.66 4.2 3.57 7.4 3.46 12.04 3.69 4.7.85 12.44 7.09 15.41 4.3 1.65.23 9.67 5.33 7.3 6.37-.49 4.22 4.98 2.85 7.55 4.57 1.3 2.5 4.26-.4 5.51 3.03 3.59-2.36 6.51-1.17 9.9 2.68 2.13 1.42 5.24 2.62 7.97 2.29-5.86 3.07 2.61 4.4 4.5 1.84 4.4-.02 10.7 2.53 13.88.32 1.82-.66 4.24.55 5.64 1.77 1.77-1.36 8.2 3.34 6.4 3.9-2.91 5.63 3.47 7.74 6.06 3.34 4.77 10.03 5.07 14.29 8.67 1 4.38 4.86 8.57 6.4 12.42 3.49.81-.32 5.75-2.95 4.34-2.56 0-4.15-1.6-6.7-1.62 3-1.79-1.97-4.02-.84-.05-1.1 3.87 6.08 1.87.97 5.03-1.4-2.71-5.11-6.04-8.2-6.32 1.15 1.87 3.44 3.9 4.99 6.62-.8 2.52-5.88 1.78-3.04-1.42-2.2-3.28-2.41 3.45-4.33 1.32-.8 3.33.4 4.32 1.8 5.55-3.4 2.26-2.73 8.96-7.23 9.76-3.63 1.62-8.47 1.21-9.83 5.63-.74 1.38-.98 5.73-3 2.38-1.78-4.6-6.06 4.01-8.1.77zm24.09-15.58c.73-3.14-.14-6.78 1.1-9.73.4-3.15 3.76-6.22 3.8-8.84-.82-1.74-5.92-7.45-1.7-4.28 1.23 2.42 3.17-1.4 3.2 3.06 3.31-2.35 2.86-7.8-.29-9.56-2.22.43-2.47 3.88-5.5 3.28-2.84 1.38 4.01-2.77-.36-3.68-2.79.52-9-1.63-4.75 2.13-1.5 2.57-4.48-3.84-4.2 1.34-1.05 3.66 3.15-.51 2.04 2.6.19 2.27-4 5.81-1.86 9.56 1.93 3.78-2.09 5.34-2.28 8.36a7.04 7.04 0 0 0 4.55 4.85c1.87 1.39 4.17.97 6.25.9zm-119.64-58.98c-1.2-3.6 5.57-7.18 1.2-11.24-3.27-3.94-9.66 5.45-3.34 2.48 0 2.85-3.05 4.71.38 6.73-.05.86.7 2.32 1.76 2.03zm213.95 74.62c-1.3-2.47 5.16-6.22 5.4-2.41 2.83.27 4.6-2.06 6.97-1.12 1.9-2.56 5.79 2.71 6.2-1.69 2.84-2.91 6.48 2.45.94 2.83-1.4 2.49-6.08 1.76-8.68 1.99-2.7-.2-5.9-1.28-8.27.65-.86-.01-1.73 0-2.56-.25zm-22.36-3.91c1.73-2.53-7.47-2-3.9-4.44 1.17-2.6-4.25-7.33-.58-10.79-.3-1.74-6.1-2.12-5.22-.2 3.06 3.19-3.39 3.63-5.14 2.12-2.89-2.28-.2-3.73.02-3.67-4.4-2.21.88-5.21 1.18-8.25 2.88-2.4 1.64-2.84-.67-3.4-1.89-1.87.96-7.03.92-1.72 1.96-.02 2.21 3.72 4.97 1.9 2.24-3.8 7.4-1.3 9.53-4.25 5.46 1.12 11.12-2.04 16.32.03-2.06 4.19-9.94-1.4-12.17 4.55-1.4 1.55-7.53 4.33-3.18 5.17 1.37-2.51 6.22-1.81 7.9-1.15-.35-1.77.5-4.48 3.3-3.61.84-2.76 6.55-.43 3.62 1.42-1.65 1.72-1.92 3.04-4.26 2.22-4.1.28-8.11 2.07-11.58 4.44-.54-.56-.8-2.63-2.76-2.44-.28-2.24-1.73 1.67.3 1.43-.15 3.32.51 7.13-1.84 9.78-.4 3.36 6.07.6 2.1 3.8-.3 3.98 4.85-2.46 6.7 1.52 3.27 3.23 7.11-1.46 10.1-2.82.01-2.07-3.13-4.16.72-3 1.67 2.54 1.78 1.95 4.69.11-2.28-2 4.57-2.52 5.81-4.05 3.16-.1-4.05 2.93.88 2.36 3.76-1.39 7.08-4.05 11.01-5.86 1.43-.44 5.12-7.13 4.08-4.12-2.92 3.23 3.69 3.11 2.18-.34-1.4-3.42 8.28-.98 9.2-5.08 4.3-3.22 8.87-6.01 13.35-9 2.29-2.93 6.2-3.61 8.36-5.28.97-3.5 4.67-5.24 6.91-7.96 3.47-.06 4.6-4.85 8.37-4.52 1.98-.27 10.24-4.96 4.63-1.07-5.07 3.66-9.75 7.87-15.27 10.77-2.82 1.3-9.46 9.92-2.41 7.36 4.03-2.16 4.64 1.3.91 2.72-1.48 3.82-4.6 7.35-9.02 6.18-.11 3.78-5.1 3.54-5.5 6.1-2.98-.41-3.92-1.37-6.33.16-5.13-1.65.33 4.55 2.18.6.6 1.5-2.73 2.51-2.69 4.39-2.5.8-7.24-2.05-9.6 2.3.46 4.02-6.84-.4-7.93 3.4-3.58.74 2.89 4.3-1.94 5.37-3.52 3.18 3.26-5.27-1.78-2.6-4.92 2.9-10.42 4.9-14.82 8.36-5.44.15 1.8-2.77-1.23-5.61-3.37.38-7.08 3.36-11.17 4.63-1.9 2.96-8.07-.77-7.81 2.05-.18.66-1.28.7-1.44-.01zm81.59-3.56c-1.5-3.86.51-10.12 5.76-9.82.92-1.7.1-7.22 2.02-2.52 3.03 4.16-5.52 5.17-5.75 9.8 2.12.65 8.75-7.26 7.04.26-1.08 2.66-5.75.16-7.84 2.2-.18.47-.95.3-1.23.08zM76.94 223.77c2.58-2.9 9.41-4.75 14.31-4.64 3.46-.37 6.2 2.56 9.7 2.92 3.77 1.2 1.06 1.93-1.02.78-4.41-1.7-10.33-2.36-14.19.98-2.2.25-3.9-1.04-6.34.35-.8-.15-1.96.4-2.46-.4zm29.14-2.48c-1.12-1.1-6.68-1.8-6.35-3.51 2.36-.57 11.14-.98 9.62.51-4.48.01-2.8 1.45.4 1.38 1.3-.18 4.11-3.57 4.35-.2 1.58 2.1-4.51 1.06-6.34 2.25l-.72-.05-.96-.38zm285.92.19c2.28-4.58-5.96.4-2.19-4.25 1.29-1.66 6.9.81 5.32-2.83-5.15 1.1 3.03-3.17 4.46-4.4 4.5-3.43 10.12-4.98 14.12-9.13 2.17-.02 8.83-8.6 6.11-2.88-3.2 2.16-3.84 5.86-7.55 7.35-3.9-1.05-3.47 3.88-5.28 6.05-2.89-.4-3.8-.73-3.99 2.4-.78 4.23-4.62 2.74-7.38 4.2-1.5.84-2.4 3.42-3.62 3.49zm-58.36-4.6c-.12-2.56 2.25-3.3 4.55-2.25 4.54-.17 2.6-5.96-.33-2.8-2.32 1.85-7.86 2.3-8.28-1.15-.83-1.82 1.83-3.5 3.95-3.07 3.5.04 7.42-.66 8.87 3.19 3.28 2.51-5.87 6.91-8.76 6.07zm12.83-13.84c-2.28-2.02 7.68-5.75.8-6.03-4.53 1.5-2.7-4.4.9-1.74 2.07-.74 7.18 1.4 5.86 2.97-2.06 2.4-4.02 4.92-7.56 4.8zm-204.38-1.23c-1.22-3.23-2.3-4.91-.95-8.04.22-2.12-4.49-5.9.77-5.73.6-3.16 5.58-4.82 2.92-.08-.01 4.32-.18 8.37-1.85 11.24-.07.78 1.05 3.78-.89 2.6zm223.03-.25c-.45-1.83-4.7-.23-2.07-2.9-.8-3.7 5.5-2.62 7.3-5.3 8.55-.82-9.17 6.68-2.56 6.35 3.48.3 7-8.2 9.66-4.53-1.4 3.12-5.06 6.55-8.81 5.63-1.18.23-2.24 1.24-3.52.75zm-62.94-1.3c-.5-2.54 3.35-7.89-1.29-8.06-.44-2.64 3.6-9.51 2.02-3.23 1.47 4.5 4.55-2.8 2.82-4.46-.87-1.35-2.2 4.12-2.5-.31-1.17-3.37 3.17-8.28 2.58-2.52 1.1 5.66 1.7-2.03 3.83-3.12-.14-3.67-2.12-3.45-3.8-2.29 1.38-3.78 7.96-9.37 4.03-13.07-.35-3.12 2.74.75 3.06-3.06-1-1.55 1.07-6.56 1.96-2.96-1.85 1.26 1.46 5.96-2.2 7.19 2.85 3.32-4.72 6.41-1.95 7.7 3.6.57.75-5.32 4.6-4.15 3.13 2.89-4.26 6.03-3.52 9.99 1.12 3.3-5.4 6.17-4.34 10.52.06 2.12-3.12 1.95-2.8 5.14.13 2.17.55 4.4-1.04 6.36.03.76-1.33 1.62-1.46.34zm-34.46-.03c-3.31-.45 2.18-4.89-1.87-3.69.21 3.75-4.52 4.72-6.15 2.57 3.57-2.37 5.68-6 10.07-3.83 3.8-3.5 3.65 4.14.08 4.15-.22.8-1.28 1.82-2.13.8zm87.08-3.92c-1.35-1.9 1.89-6.96-2.77-3.8-2.87 1.4-5.32-2-.5-1.63 3.7.42 7.32-.94 10.94-.51 5.24 1.31-5.2.82-4.47 4.53-.71.76-2.07 2.24-3.2 1.41zm12.88-6.83c.66-3.23 5.13-3.07 7.75-2.1 3.55-.14-.55-4.67-1.65-2.07-1.95-2.34 2.1-1.84 2.71-1.85 3.38-2.29 7.86 4.77 9.61-.99 1.15-2.31 4-5.58 2.04-.96-1.28 4.16-4.93 5.2-8.1 7.04-3.81.7-8.7 1.25-12.36.93zm81.56-12.73c-.51-2.81-4.17 1.77-5.53-1.82-4.58 1.1-.33-4.36-2.09-6.16-4.48 2.92-1.75-5.07-3.95-7.08-1.3-3.26 1.59-4.9 1.58-.92 3.93 4.4.51-2.9.26-4.06.76-2.1-1.12-5.43-1.45-1.55-1.85 1.98-3.23-4.79.1-2.86.86-4.12-6.55-4.84-5.94-8.37 1.19-1.94-3.7-2.7.67-3.18 3.23-.44 6.87-1.86 9.76.24 1.4 1.47-.7 3.88 2.57 4.53 1.11 2.63 5.59 5.4 3.23 8.18.34 2.73 4.06 4.15 2.94 7.13.91 4.3-.53 8.5-.87 12.88-.35.49-.56 3.36-1.28 3.04zm-347.16-1.4c-.41-1.87 6.87-4 2.23-4.37.43-3.53 2-1.92 3.42-.7-1.36-2.25 1.02-6.74 3.33-4.65 1.07 2.46.25 7.64-3.41 6.59-2.71-1-2.5 5.2-3.65 2.32-.45.53-1.2 1.5-1.92.81zm242.76-7.28c-.88-2.76.46-8.53-2.34-9.69-1.67 2.18-2.2 6.12-5.46 5.47 1.33-2.96-1.47-5.9-.08-8.29-2.36-3.93-.15-8.07-.26-12.33-4.23-1.9.47 7.62-5.12 3.67-3.68-1.17-9.72-.08-5.7 5.04-1.8 4.7-5.1-2.18-3.2-4.52-.64-3.21 9.39-5.66 5.17-7.47-5.89.17 5.05-3.95-.23-5.83-2.94-1.9-3.57.92-2.88 3.17-3.52 1.89-5.97 3.2-9.15 5.6-2.2 3.95-8 2.56-10.03 7.26-1.82 1.98-4.33.42-6.27 1.8-2.82-.67-8.77-1.05-4.9-4.87 3.45 1.66 4.67-.16 1.01-1.73.92-2.54 1.16-5.36 2.2-2.48 3.03-1.4-2.64-2.46 1.21-4.5 3.8-3.55 8.03-7.2 12.02-9.77 3.44-1.77 5.03-5.27 6.98-8.19 1.28-1.95 4.37-2.83 3.4-6.24-2.02-3.57-6-2.14-7.25.87-3.46 1.24-2.58-5.64-5.45-1.66-6.1-1.4-2.02 5.92-6.16 7.12-4.03.87-1.43 8.23-5.36 3.14 1.61-3.33.22-9.07 5.25-9.42 6.91-.56 7.68-8.78 13.37-10.88 2.27-4.79-7.9 1.81-4.45-3.11.43-1.3 2.84-8.18.8-5.76-1.58 2.35-1.98 8.1-6.16 6.77-1.67-1.76 2.94-5.1-.36-5.13-1.85 2.78-5.71 2-6.7.65-2.27.61-3.34 3.84-5.16 3.68 5.12 1.07-2.2 3.08-3.13-.41-4.02 1.02-3.53-2.08.2-2.06-2.16-1.51-6.2 1.29-7.2-1.63-3.36.06-3.16-3.52-6.73-.5-5.78 2.03-.32-3.12-2.47-5.18 3.05-2.6 4.7-.3 3.78 2.46 2.16 1.75 3.88-2.2 2.97-3.46 2.69-1.56 6.52-.24 2.83 2.54-.84 5.63 4.1 3.4 7.75 2.66 2.9-1.06 1.64-3.78-1.13-1.96-5.3 1.26-5.84-1.63-1.4-2.65 3.18-3.89 6.78-4.5 10.78-1.45 2.81-3.42 7.02.63 10.3-1.5 2.35-1.26 4.62 2.56 7.36 1.58 3.26 1.17 7.68-4.22 7.27-.36 5.13-1.42-.66-7.01 4.31-9.73 3.7-1.85-2.27 6.36 2.32 5.16 3.44-5 4.5 8.45 9.52 2.93 3.09-2.66 7.02-3.7 7.9-8.31 3.08-3.61 9.05-4.17 10.84-8.77 2.41-.61 3.97 1.99 3.95 3.92.13.4 4.82-1.27 3 1.87-1.9 4.42-3.97-3.81-6.32 1.48-3.27 2.53-1.39 10.18-4.59 10.37-2.22-1.04-2.77-4.05-1.5-6.06 2.33-5.15-6.07-.83-.99 1.95a65.92 65.92 0 0 0-.17 13.37c3.57-1.4 7.4-3.43 10.45-2.45 2.65-1.58 8.66-3.72 10.21-1.73-3.3.16-9.42 3.31-3.9 6.03 3.15 2.16-3.9 2.93.61 5.16 3.2.97-3.69 5.83 1.5 6.05.9-5.3 5.22.32 8-.04 3.67 5.62-5.54 1.66-5.43 6.4 2.63 1.16-3.08.37-3.35-.93-1.42 1.94-9.4-.61-6.42 4.21 2.24 2.15 7.84.37 7.91 5.23 2.64.53 4.34 3.42 4.56 4.6 3.18-1.4 4.7.71.65.85-3.31 1.61-3.12-1.13-3.88-2.42-4.05 1.13-2.42 3.81.45 4.33.39 2.45-3.86-.36-5.17 1.51-3.55 1.55-.25-6.3-4.13-2 .22-2.07-.36-4.27-.43-6.18-2.32 1.88-6.01 3.04-4.39 5.93-2.04 3.73.54 3.32 2.8 3.9 2.7 3.3 4.22 7.71 7.27 11.55-.07 4.72 3.51 8.2 5.48 12.35.66 1.88 3.93 7.77.01 7.47-2.32 2.88-3.38-6.04-5.91-6.9.2-3.8-.67-5.4-3.42-6.64-.7-2.22-1.54-6-3.2-1.98-1.2 2.7-3.3-1.6-4.6-1.61 3.05-.12 1-2.04-.8-1.4.78-4.8-5.36 1.46-3.21-4.08-1.45-.43-3.84.32-2.13-2.95.74-3.93 2.25 4.02 3.62-1.04-1.71-1.25-5.38-2.6-4.6-6 .87-2.56.29-5.72-2.64-4.53 1.02-2.17-2.64-5.78-3.07-1.98-.77 3.1-4.59 4.22-2.14 8.02-2.33 4.07-2.66 2.45-5.3.46-2.65 1.28.2 5.66 1.64 7.49 6.38-1.71 3.3 7.32 5.07 11.04-1.73.14 2.22 2.34.83 5.25.2.84 0 12.66-1.13 8.4zm-5.42-8.33c1.1-1.94-.47-4.45 1.74-1.37 2.11-3.28 3.83-10.84-.45-12.25-4.75.2 3.1 2.84.1 5.61 1.3 3.37-3.02 6.12-2.8 1-1.44 1.56 0 5.88.67 7.57l.74-.56zm3.98-30c.29-4.82-3-9.03-3.48-12.86-5.15 1.11-5.35 8.08-.38 9.96.2 1.67 1.8 4.6 3.86 2.9zm20.08-4.63c1.79-2.84-1.1-7.17-3.64-7.71 3.1-6.11-4.18-.65-2.62 2.68 1.24 1.87 2.9 7.15 6.26 5.03zm35.97 36.42c3.48-3.92 6.47-8.71 10.16-12.6 3.68-3.82 6.2-9.48 12.1-10.42 1.03-4.39 8.32-1.83 12.4-2.28-2.25 1.16-10.22 2.67-13.99 5.14-4.32 2.36-7.47 7.03-11.23 10.25-3.96 1.85-3.47 7.2-7.76 9.18l-.97.6zM99.3 158.78c.77-2.7-.8-3.53-3.03-3.5 3.13-2.83 7.44-2.79 9.99-5.92 2.2-1.29 8.37-5.51 4.64-1.21 2.28 3.26-2.94.58-3.47 4.25-1.55 1.55-1.19 4.03-2.41 5.41-1.66.56-1.24-4.33-3.24.08.13 1.05-1.84 1.33-2.48.89zm181.26-29c1.46-4.93 10.82-4.48 11.55-9.44 2.42-4.03 4.48 1.32 1.67 3.28-.69 3.45-5.83 3.93-8.56 5.76-1.53-.9 2.5-3.82-1.46-2.08.1 2.22-2.9 1.03-3.2 2.48zm-104.1-11.95c-.35-.91 3.59-2.22-.73-2.17.76-.65 5.85-4.67.8-3.29-3.13.82-3.85 6.67-6.1 1.33-2.46-2.1-.55-7.39 1.8-6.3 4.63-1.89-1.9-7.34 2.2-9.27-2.43-.29-3.5-9.38-.82-4.56-.43 3.13 6.53 3.02 1.92 5-3.2 3.77 1.39 6.06-.04 9.93 4.13.22-.6-7.76 3.5-7.07.07 3.42 1.82 7.53.46 10.66 1.37 1.92-.13 7-2.99 5.74zM390.1 92.86c-1.7-5.74-7.8 2.12-12.13.12a84.98 84.98 0 0 1 11.27-3.61c4.13-.72 8.67 1.39 12.65-.7 2.2 1.3-5 2.02-6.86 2.4-2.4-1.04-4.07 2.02-4.93 1.79zM218.34 78.84c-1.59-3.96-5.38 2.45-7.1-1.88-2.97 1.12-4.35-2.24-1.33-2.93 2.7-4.69 7.83.56 11.25 1.66 1.9 1.06-.87 1.85-1.11 3.04l-.77.33-.94-.22zm100.1-1.23c.54-2.97-1.2-5.5-2.02-7.8-.23-3.79 6.67.79 8.13 2-.06 2.84-5.91 5.76-6.11 5.8zm-32.33-1.58c3.27-3.56-1.88-2.3-3.4-3.24 2.8-3.63 9.87-1.65 13.37.53-1.21 1.83-8.03-1.68-8.49 3l-.79.1-.7-.39zM136.93 39.16c-2.2-1.3-4.1-1.72-6.71-3.44-1.51 1.12-1.3 4.94-4.2 2.4-.98-1.32-6.08-.48-1.75-2.15a8.76 8.76 0 0 1 7.13-2c3.03 1.02 5.94 1.77 6.95 4.55-.05.66-.9.95-1.42.64z" clip-path="none" display="inline"/></g></g><path fill="url(#gradient-1-0)" d="M292 59.26c61.05 13.38 111.4 55.32 136.35 111.12L292 59.25Z" filter="url(#filter-1)" paint-order="fill" transform="rotate(180 360.18 114.82)"/></svg>